<svg version="1.1" viewBox="0.0 0.0 678.8057742782153 424.03937007874015" fill="none" stroke="none" stroke-linecap="square" stroke-miterlimit="10" xmlns:xlink="http://www.w3.org/1999/xlink" xmlns="http://www.w3.org/2000/svg"><clipPath id="p.0"><path d="m0 0l678.8058 0l0 424.03937l-678.8058 0l0 -424.03937z" clip-rule="nonzero"/></clipPath><g clip-path="url(#p.0)"><path fill="#000000" fill-opacity="0.0" d="m0 0l678.8058 0l0 424.03937l-678.8058 0z" fill-rule="evenodd"/><path fill="#efefef" d="m4.328084 7.656168l111.74803 0l0 39.401573l-111.74803 0z" fill-rule="evenodd"/><path stroke="#000000" stroke-width="2.0" stroke-linejoin="round" stroke-linecap="butt" d="m4.328084 7.656168l111.74803 0l0 39.401573l-111.74803 0z" fill-rule="evenodd"/><path fill="#000000" d="m45.726162 33.292576q-0.5 0.21875 -0.90625 0.421875q-0.40625 0.1875 -1.0625 0.390625q-0.546875 0.171875 -1.203125 0.296875q-0.65625 0.125 -1.4375 0.125q-1.46875 0 -2.6875 -0.40625q-1.203125 -0.421875 -2.09375 -1.3125q-0.875 -0.8593731 -1.375 -2.187498q-0.484375 -1.34375 -0.484375 -3.109375q0 -1.671875 0.46875 -3.0q0.484375 -1.328125 1.375 -2.234375q0.859375 -0.875 2.078125 -1.34375q1.234375 -0.46875 2.734375 -0.46875q1.09375 0 2.171875 0.265625q1.09375 0.265625 2.421875 0.9375l0 2.140625l-0.140625 0q-1.109375 -0.953125 -2.21875 -1.375q-1.09375 -0.421875 -2.359375 -0.421875q-1.03125 0 -1.859375 0.328125q-0.8125 0.328125 -1.46875 1.03125q-0.625 0.6875 -0.984375 1.734375q-0.34375 1.03125 -0.34375 2.40625q0 1.421875 0.390625 2.453125q0.390625 1.03125 1.0 1.6875q0.640625 0.6718731 1.484375 0.9999981q0.859375 0.3125 1.796875 0.3125q1.3125 0 2.4375 -0.4375q1.140625 -0.453125 2.140625 -1.3437481l0.125 0l0 2.109373zm10.323456 0.984375l-1.703125 0l0 -1.078125q-0.234375 0.15625 -0.625 0.4375q-0.375 0.265625 -0.75 0.4375q-0.421875 0.203125 -0.984375 0.34375q-0.546875 0.140625 -1.296875 0.140625q-1.375 0 -2.328125 -0.90625q-0.953125 -0.921875 -0.953125 -2.328123q0 -1.15625 0.484375 -1.859375q0.5 -0.71875 1.421875 -1.140625q0.9375 -0.40625 2.234375 -0.546875q1.296875 -0.15625 2.796875 -0.21875l0 -0.265625q0 -0.578125 -0.203125 -0.953125q-0.203125 -0.390625 -0.59375 -0.609375q-0.359375 -0.21875 -0.875 -0.28125q-0.5 -0.078125 -1.0625 -0.078125q-0.671875 0 -1.5 0.1875q-0.828125 0.171875 -1.71875 0.5l-0.09375 0l0 -1.734375q0.5 -0.140625 1.453125 -0.296875q0.953125 -0.171875 1.875 -0.171875q1.0625 0 1.859375 0.1875q0.796875 0.171875 1.390625 0.59375q0.5625 0.421875 0.859375 1.09375q0.3125 0.65625 0.3125 1.640625l0 6.906248zm-1.703125 -2.499998l0 -2.84375q-0.78125 0.046875 -1.84375 0.140625q-1.0625 0.09375 -1.6875 0.265625q-0.734375 0.203125 -1.1875 0.65625q-0.453125 0.4375 -0.453125 1.21875q0 0.8593731 0.515625 1.3124981q0.53125 0.4375 1.625 0.4375q0.890625 0 1.640625 -0.34375q0.75 -0.359375 1.390625 -0.8437481zm6.7359314 2.499998l-1.71875 0l0 -14.171873l1.71875 0l0 14.171873zm5.119541 0l-1.71875 0l0 -14.171873l1.71875 0l0 14.171873zm11.900787 -4.906248l-7.5 0q0 0.9375 0.28125 1.640625q0.28125 0.6875 0.78125 1.1406231q0.46875 0.4375 1.109375 0.65625q0.65625 0.21875 1.453125 0.21875q1.03125 0 2.078125 -0.421875q1.0625 -0.421875 1.5 -0.8124981l0.09375 0l0 1.8593731q-0.859375 0.375 -1.765625 0.625q-0.90625 0.234375 -1.890625 0.234375q-2.53125 0 -3.953125 -1.359375q-1.421875 -1.3749981 -1.421875 -3.906248q0 -2.5 1.359375 -3.953125q1.359375 -1.46875 3.578125 -1.46875q2.0625 0 3.171875 1.203125q1.125 1.203125 1.125 3.40625l0 0.9375zm-1.671875 -1.3125q0 -1.34375 -0.671875 -2.078125q-0.671875 -0.75 -2.03125 -0.75q-1.375 0 -2.203125 0.8125q-0.8125 0.8125 -0.921875 2.015625l5.828125 0zm10.613586 -2.09375l-0.09375 0q-0.375 -0.09375 -0.734375 -0.125q-0.359375 -0.046875 -0.859375 -0.046875q-0.78125 0 -1.53125 0.359375q-0.734375 0.34375 -1.421875 0.90625l0 7.218748l-1.703125 0l0 -10.171873l1.703125 0l0 1.5q1.03125 -0.8125 1.796875 -1.15625q0.78125 -0.34375 1.59375 -0.34375q0.453125 0 0.65625 0.03125q0.203125 0.015625 0.59375 0.078125l0 1.75z" fill-rule="nonzero"/><path fill="#000000" fill-opacity="0.0" d="m60.2021 47.057743l-0.37795258 130.07875" fill-rule="evenodd"/><path stroke="#000000" stroke-width="3.0" stroke-linejoin="round" stroke-linecap="butt" d="m60.2021 47.057743l-0.32565308 112.07881" fill-rule="evenodd"/><path fill="#000000" stroke="#000000" stroke-width="3.0" stroke-linecap="butt" d="m54.921272 159.12216l4.915619 13.628632l4.9947357 -13.599838z" fill-rule="evenodd"/><path fill="#efefef" d="m532.3438 4.7060366l111.74805 0l0 39.401577l-111.74805 0z" fill-rule="evenodd"/><path stroke="#000000" stroke-width="2.0" stroke-linejoin="round" stroke-linecap="butt" d="m532.3438 4.7060366l111.74805 0l0 39.401577l-111.74805 0z" fill-rule="evenodd"/><path fill="#000000" d="m555.0993 30.342447q-0.5 0.21875 -0.90625 0.421875q-0.40625 0.1875 -1.0625 0.390625q-0.546875 0.171875 -1.203125 0.296875q-0.65625 0.125 -1.4375 0.125q-1.46875 0 -2.6875 -0.40625q-1.203125 -0.421875 -2.09375 -1.3125q-0.875 -0.859375 -1.375 -2.1875q-0.484375 -1.34375 -0.484375 -3.109375q0 -1.671875 0.46875 -3.0q0.484375 -1.328125 1.375 -2.234375q0.859375 -0.875 2.078125 -1.34375q1.234375 -0.46875 2.734375 -0.46875q1.09375 0 2.171875 0.265625q1.09375 0.265625 2.421875 0.9375l0 2.140625l-0.140625 0q-1.109375 -0.953125 -2.21875 -1.375q-1.09375 -0.421875 -2.359375 -0.421875q-1.03125 0 -1.859375 0.328125q-0.8125 0.328125 -1.46875 1.03125q-0.625 0.6875 -0.984375 1.734375q-0.34375 1.03125 -0.34375 2.40625q0 1.421875 0.390625 2.453125q0.390625 1.03125 1.0 1.6875q0.640625 0.671875 1.484375 1.0q0.859375 0.3125 1.796875 0.3125q1.3125 0 2.4375 -0.4375q1.140625 -0.453125 2.140625 -1.34375l0.125 0l0 2.109375zm11.089111 -4.09375q0 2.484375 -1.28125 3.921875q-1.265625 1.4375 -3.40625 1.4375q-2.171875 0 -3.4375 -1.4375q-1.265625 -1.4375 -1.265625 -3.921875q0 -2.484375 1.265625 -3.921875q1.265625 -1.453125 3.4375 -1.453125q2.140625 0 3.40625 1.453125q1.28125 1.4375 1.28125 3.921875zm-1.765625 0q0 -1.984375 -0.78125 -2.9375q-0.765625 -0.96875 -2.140625 -0.96875q-1.40625 0 -2.171875 0.96875q-0.765625 0.953125 -0.765625 2.9375q0 1.90625 0.765625 2.90625q0.78125 0.984375 2.171875 0.984375q1.359375 0 2.140625 -0.984375q0.78125 -0.984375 0.78125 -2.90625zm10.76062 -3.234375l-0.09375 0q-0.375 -0.09375 -0.734375 -0.125q-0.359375 -0.046875 -0.859375 -0.046875q-0.78125 0 -1.53125 0.359375q-0.734375 0.34375 -1.421875 0.90625l0 7.21875l-1.703125 0l0 -10.171875l1.703125 0l0 1.5q1.03125 -0.8125 1.796875 -1.15625q0.78125 -0.34375 1.59375 -0.34375q0.453125 0 0.65625 0.03125q0.203125 0.015625 0.59375 0.078125l0 1.75zm10.289795 3.234375q0 2.484375 -1.28125 3.921875q-1.265625 1.4375 -3.40625 1.4375q-2.171875 0 -3.4375 -1.4375q-1.265625 -1.4375 -1.265625 -3.921875q0 -2.484375 1.265625 -3.921875q1.265625 -1.453125 3.4375 -1.453125q2.140625 0 3.40625 1.453125q1.28125 1.4375 1.28125 3.921875zm-1.765625 0q0 -1.984375 -0.78125 -2.9375q-0.765625 -0.96875 -2.140625 -0.96875q-1.40625 0 -2.171875 0.96875q-0.765625 0.953125 -0.765625 2.9375q0 1.90625 0.765625 2.90625q0.78125 0.984375 2.171875 0.984375q1.359375 0 2.140625 -0.984375q0.78125 -0.984375 0.78125 -2.90625zm12.85437 5.078125l-1.71875 0l0 -1.125q-0.859375 0.671875 -1.65625 1.046875q-0.796875 0.359375 -1.75 0.359375q-1.609375 0 -2.5 -0.96875q-0.890625 -0.984375 -0.890625 -2.890625l0 -6.59375l1.71875 0l0 5.796875q0 0.765625 0.0625 1.328125q0.078125 0.546875 0.3125 0.9375q0.25 0.390625 0.640625 0.578125q0.390625 0.1875 1.140625 0.1875q0.671875 0 1.453125 -0.34375q0.78125 -0.359375 1.46875 -0.890625l0 -7.59375l1.71875 0l0 10.171875zm8.649658 -0.09375q-0.484375 0.125 -1.0625 0.203125q-0.5625 0.09375 -1.0 0.09375q-1.5625 0 -2.375 -0.828125q-0.8125 -0.84375 -0.8125 -2.703125l0 -5.40625l-1.15625 0l0 -1.4375l1.15625 0l0 -2.921875l1.71875 0l0 2.921875l3.53125 0l0 1.4375l-3.53125 0l0 4.640625q0 0.796875 0.03125 1.25q0.03125 0.453125 0.25 0.84375q0.203125 0.359375 0.546875 0.53125q0.359375 0.171875 1.078125 0.171875q0.421875 0 0.875 -0.125q0.453125 -0.125 0.65625 -0.203125l0.09375 0l0 1.53125zm3.9138794 -11.78125l-1.9375 0l0 -1.78125l1.9375 0l0 1.78125zm-0.109375 11.875l-1.71875 0l0 -10.171875l1.71875 0l0 10.171875zm11.885132 0l-1.703125 0l0 -5.796875q0 -0.703125 -0.09375 -1.3125q-0.078125 -0.609375 -0.296875 -0.96875q-0.21875 -0.375 -0.65625 -0.5625q-0.421875 -0.1875 -1.109375 -0.1875q-0.703125 0 -1.46875 0.34375q-0.765625 0.34375 -1.46875 0.890625l0 7.59375l-1.703125 0l0 -10.171875l1.703125 0l0 1.125q0.8125 -0.65625 1.65625 -1.03125q0.859375 -0.375 1.765625 -0.375q1.65625 0 2.515625 1.0q0.859375 0.984375 0.859375 2.84375l0 6.609375zm11.821533 -4.90625l-7.5 0q0 0.9375 0.28125 1.640625q0.28125 0.6875 0.78125 1.140625q0.46875 0.4375 1.109375 0.65625q0.65625 0.21875 1.453125 0.21875q1.03125 0 2.078125 -0.421875q1.0625 -0.421875 1.5 -0.8125l0.09375 0l0 1.859375q-0.859375 0.375 -1.765625 0.625q-0.90625 0.234375 -1.890625 0.234375q-2.53125 0 -3.953125 -1.359375q-1.421875 -1.375 -1.421875 -3.90625q0 -2.5 1.359375 -3.953125q1.359375 -1.46875 3.578125 -1.46875q2.0625 0 3.171875 1.203125q1.125 1.203125 1.125 3.40625l0 0.9375zm-1.671875 -1.3125q0 -1.34375 -0.671875 -2.078125q-0.671875 -0.75 -2.03125 -0.75q-1.375 0 -2.203125 0.8125q-0.8125 0.8125 -0.921875 2.015625l5.828125 0z" fill-rule="nonzero"/><path fill="#efefef" d="m152.66667 7.656168l111.74803 0l0 39.401573l-111.74803 0z" fill-rule="evenodd"/><path stroke="#000000" stroke-width="2.0" stroke-linejoin="round" stroke-linecap="butt" d="m152.66667 7.656168l111.74803 0l0 39.401573l-111.74803 0z" fill-rule="evenodd"/><path fill="#000000" d="m179.19833 22.323828l-6.859375 0l0 3.8125l5.890625 0l0 1.609375l-5.890625 0l0 6.531248l-1.796875 0l0 -13.562498l8.65625 0l0 1.609375zm10.362503 11.953123l-1.71875 0l0 -1.125q-0.859375 0.671875 -1.65625 1.046875q-0.796875 0.359375 -1.75 0.359375q-1.609375 0 -2.5 -0.96875q-0.890625 -0.984375 -0.890625 -2.890623l0 -6.59375l1.71875 0l0 5.796875q0 0.765625 0.0625 1.328125q0.078125 0.546875 0.3125 0.9374981q0.25 0.390625 0.640625 0.578125q0.390625 0.1875 1.140625 0.1875q0.671875 0 1.453125 -0.34375q0.78125 -0.359375 1.46875 -0.8906231l0 -7.59375l1.71875 0l0 10.171873zm11.868408 0l-1.703125 0l0 -5.796873q0 -0.703125 -0.09375 -1.3125q-0.078125 -0.609375 -0.296875 -0.96875q-0.21875 -0.375 -0.65625 -0.5625q-0.421875 -0.1875 -1.109375 -0.1875q-0.703125 0 -1.46875 0.34375q-0.765625 0.34375 -1.46875 0.890625l0 7.593748l-1.703125 0l0 -10.171873l1.703125 0l0 1.125q0.8125 -0.65625 1.65625 -1.03125q0.859375 -0.375 1.765625 -0.375q1.65625 0 2.515625 1.0q0.859375 0.984375 0.859375 2.84375l0 6.609373zm10.821533 -0.640625q-0.84375 0.40625 -1.625 0.640625q-0.765625 0.234375 -1.625 0.234375q-1.109375 0 -2.03125 -0.328125q-0.921875 -0.328125 -1.578125 -0.984375q-0.65625 -0.65625 -1.03125 -1.6562481q-0.359375 -1.0 -0.359375 -2.34375q0 -2.484375 1.375 -3.90625q1.375 -1.421875 3.625 -1.421875q0.875 0 1.71875 0.25q0.84375 0.234375 1.53125 0.59375l0 1.90625l-0.078125 0q-0.796875 -0.609375 -1.625 -0.9375q-0.828125 -0.328125 -1.625 -0.328125q-1.453125 0 -2.296875 0.984375q-0.84375 0.96875 -0.84375 2.859375q0 1.84375 0.8125 2.843748q0.828125 0.984375 2.328125 0.984375q0.515625 0 1.046875 -0.140625q0.546875 -0.140625 0.96875 -0.359375q0.375 -0.1875 0.703125 -0.40625q0.328125 -0.2187481 0.53125 -0.3593731l0.078125 0l0 1.8749981zm7.4854584 0.546875q-0.484375 0.125 -1.0625 0.203125q-0.5625 0.09375 -1.0 0.09375q-1.5625 0 -2.375 -0.828125q-0.8125 -0.84375 -0.8125 -2.703123l0 -5.40625l-1.15625 0l0 -1.4375l1.15625 0l0 -2.921875l1.71875 0l0 2.921875l3.53125 0l0 1.4375l-3.53125 0l0 4.640625q0 0.796875 0.03125 1.25q0.03125 0.453125 0.25 0.8437481q0.203125 0.359375 0.546875 0.53125q0.359375 0.171875 1.078125 0.171875q0.421875 0 0.875 -0.125q0.453125 -0.125 0.65625 -0.203125l0.09375 0l0 1.53125zm3.9138641 -11.781248l-1.9375 0l0 -1.78125l1.9375 0l0 1.78125zm-0.109375 11.874998l-1.71875 0l0 -10.171873l1.71875 0l0 10.171873zm12.057037 -5.078123q0 2.484375 -1.28125 3.921873q-1.265625 1.4375 -3.40625 1.4375q-2.171875 0 -3.4375 -1.4375q-1.265625 -1.4374981 -1.265625 -3.921873q0 -2.484375 1.265625 -3.921875q1.265625 -1.453125 3.4375 -1.453125q2.140625 0 3.40625 1.453125q1.28125 1.4375 1.28125 3.921875zm-1.765625 0q0 -1.984375 -0.78125 -2.9375q-0.765625 -0.96875 -2.140625 -0.96875q-1.40625 0 -2.171875 0.96875q-0.765625 0.953125 -0.765625 2.9375q0 1.90625 0.765625 2.906248q0.78125 0.984375 2.171875 0.984375q1.359375 0 2.140625 -0.984375q0.78125 -0.9843731 0.78125 -2.906248zm12.916855 5.078123l-1.703125 0l0 -5.796873q0 -0.703125 -0.09375 -1.3125q-0.078125 -0.609375 -0.296875 -0.96875q-0.21875 -0.375 -0.65625 -0.5625q-0.421875 -0.1875 -1.109375 -0.1875q-0.703125 0 -1.46875 0.34375q-0.765625 0.34375 -1.46875 0.890625l0 7.593748l-1.703125 0l0 -10.171873l1.703125 0l0 1.125q0.8125 -0.65625 1.65625 -1.03125q0.859375 -0.375 1.765625 -0.375q1.65625 0 2.515625 1.0q0.859375 0.984375 0.859375 2.84375l0 6.609373z" fill-rule="nonzero"/><path fill="#efefef" d="m384.00525 4.7060366l111.74805 0l0 39.401577l-111.74805 0z" fill-rule="evenodd"/><path stroke="#000000" stroke-width="2.0" stroke-linejoin="round" stroke-linecap="butt" d="m384.00525 4.7060366l111.74805 0l0 39.401577l-111.74805 0z" fill-rule="evenodd"/><path fill="#000000" d="m425.40332 30.342447q-0.5 0.21875 -0.90625 0.421875q-0.40625 0.1875 -1.0625 0.390625q-0.546875 0.171875 -1.203125 0.296875q-0.65625 0.125 -1.4375 0.125q-1.46875 0 -2.6875 -0.40625q-1.203125 -0.421875 -2.09375 -1.3125q-0.875 -0.859375 -1.375 -2.1875q-0.484375 -1.34375 -0.484375 -3.109375q0 -1.671875 0.46875 -3.0q0.484375 -1.328125 1.375 -2.234375q0.859375 -0.875 2.078125 -1.34375q1.234375 -0.46875 2.734375 -0.46875q1.09375 0 2.171875 0.265625q1.09375 0.265625 2.421875 0.9375l0 2.140625l-0.140625 0q-1.109375 -0.953125 -2.21875 -1.375q-1.09375 -0.421875 -2.359375 -0.421875q-1.03125 0 -1.859375 0.328125q-0.8125 0.328125 -1.46875 1.03125q-0.625 0.6875 -0.984375 1.734375q-0.34375 1.03125 -0.34375 2.40625q0 1.421875 0.390625 2.453125q0.390625 1.03125 1.0 1.6875q0.640625 0.671875 1.484375 1.0q0.859375 0.3125 1.796875 0.3125q1.3125 0 2.4375 -0.4375q1.140625 -0.453125 2.140625 -1.34375l0.125 0l0 2.109375zm10.323456 0.984375l-1.703125 0l0 -1.078125q-0.234375 0.15625 -0.625 0.4375q-0.375 0.265625 -0.75 0.4375q-0.421875 0.203125 -0.984375 0.34375q-0.546875 0.140625 -1.296875 0.140625q-1.375 0 -2.328125 -0.90625q-0.953125 -0.921875 -0.953125 -2.328125q0 -1.15625 0.484375 -1.859375q0.5 -0.71875 1.421875 -1.140625q0.9375 -0.40625 2.234375 -0.546875q1.296875 -0.15625 2.796875 -0.21875l0 -0.265625q0 -0.578125 -0.203125 -0.953125q-0.203125 -0.390625 -0.59375 -0.609375q-0.359375 -0.21875 -0.875 -0.28125q-0.5 -0.078125 -1.0625 -0.078125q-0.671875 0 -1.5 0.1875q-0.828125 0.171875 -1.71875 0.5l-0.09375 0l0 -1.734375q0.5 -0.140625 1.453125 -0.296875q0.953125 -0.171875 1.875 -0.171875q1.0625 0 1.859375 0.1875q0.796875 0.171875 1.390625 0.59375q0.5625 0.421875 0.859375 1.09375q0.3125 0.65625 0.3125 1.640625l0 6.90625zm-1.703125 -2.5l0 -2.84375q-0.78125 0.046875 -1.84375 0.140625q-1.0625 0.09375 -1.6875 0.265625q-0.734375 0.203125 -1.1875 0.65625q-0.453125 0.4375 -0.453125 1.21875q0 0.859375 0.515625 1.3125q0.53125 0.4375 1.625 0.4375q0.890625 0 1.640625 -0.34375q0.75 -0.359375 1.390625 -0.84375zm6.7359314 2.5l-1.71875 0l0 -14.171875l1.71875 0l0 14.171875zm5.1195374 0l-1.71875 0l0 -14.171875l1.71875 0l0 14.171875zm11.900787 -4.90625l-7.5 0q0 0.9375 0.28125 1.640625q0.28125 0.6875 0.78125 1.140625q0.46875 0.4375 1.109375 0.65625q0.65625 0.21875 1.453125 0.21875q1.03125 0 2.078125 -0.421875q1.0625 -0.421875 1.5 -0.8125l0.09375 0l0 1.859375q-0.859375 0.375 -1.765625 0.625q-0.90625 0.234375 -1.890625 0.234375q-2.53125 0 -3.953125 -1.359375q-1.421875 -1.375 -1.421875 -3.90625q0 -2.5 1.359375 -3.953125q1.359375 -1.46875 3.578125 -1.46875q2.0625 0 3.171875 1.203125q1.125 1.203125 1.125 3.40625l0 0.9375zm-1.671875 -1.3125q0 -1.34375 -0.671875 -2.078125q-0.671875 -0.75 -2.03125 -0.75q-1.375 0 -2.203125 0.8125q-0.8125 0.8125 -0.921875 2.015625l5.828125 0zm10.613586 -2.09375l-0.09375 0q-0.375 -0.09375 -0.734375 -0.125q-0.359375 -0.046875 -0.859375 -0.046875q-0.78125 0 -1.53125 0.359375q-0.734375 0.34375 -1.421875 0.90625l0 7.21875l-1.703125 0l0 -10.171875l1.703125 0l0 1.5q1.03125 -0.8125 1.796875 -1.15625q0.78125 -0.34375 1.59375 -0.34375q0.453125 0 0.65625 0.03125q0.203125 0.015625 0.59375 0.078125l0 1.75z" fill-rule="nonzero"/><path fill="#000000" fill-opacity="0.0" d="m59.824146 223.80577l0.37795258 93.10237" fill-rule="evenodd"/><path stroke="#000000" stroke-width="3.0" stroke-linejoin="round" stroke-linecap="butt" d="m59.824146 223.80577l0.30488205 75.10252" fill-rule="evenodd"/><path fill="#000000" stroke="#000000" stroke-width="3.0" stroke-linecap="butt" d="m55.173874 298.9284l5.0104218 13.594055l4.899887 -13.634277z" fill-rule="evenodd"/><path fill="#000000" fill-opacity="0.0" d="m60.013123 339.60892l0.37795258 70.519684" fill-rule="evenodd"/><path stroke="#000000" stroke-width="3.0" stroke-linejoin="round" stroke-linecap="butt" d="m60.013123 339.60892l0.2814827 52.519928" fill-rule="evenodd"/><path fill="#000000" stroke="#000000" stroke-width="3.0" stroke-linecap="butt" d="m55.33948 392.15543l5.0280914 13.587524l4.88216 -13.640625z" fill-rule="evenodd"/><path fill="#000000" fill-opacity="0.0" d="m173.7559 47.149605l0.12599182 156.8819" fill-rule="evenodd"/><path stroke="#000000" stroke-width="3.0" stroke-linejoin="round" stroke-linecap="butt" d="m173.7559 47.149605l0.11152649 138.8819" fill-rule="evenodd"/><path fill="#000000" stroke="#000000" stroke-width="3.0" stroke-linecap="butt" d="m168.91225 186.03548l4.9661255 13.610321l4.9442596 -13.618271z" fill-rule="evenodd"/><path fill="#000000" fill-opacity="0.0" d="m237.50656 47.149605l-0.50393677 311.68506" fill-rule="evenodd"/><path stroke="#000000" stroke-width="3.0" stroke-linejoin="round" stroke-linecap="butt" d="m237.50656 47.149605l-0.47483826 293.68506" fill-rule="evenodd"/><path fill="#000000" stroke="#000000" stroke-width="3.0" stroke-linecap="butt" d="m232.07654 340.82666l4.933182 13.622284l4.9772034 -13.606262z" fill-rule="evenodd"/><path fill="#000000" fill-opacity="0.0" d="m10.118111 287.70865l55.90551 0l0 38.771667l-55.90551 0z" fill-rule="evenodd"/><path fill="#000000" d="m26.55561 311.80304q-1.5 0.46875 -2.578125 0.46875q-1.140625 0 -2.09375 -0.609375q-0.9375 -0.625 -1.421875 -1.625q-0.46875 -1.0 -0.46875 -2.265625q0 -1.875 1.03125 -3.125q1.046875 -1.25 3.21875 -1.25q1.0 0 2.21875 0.265625l0 1.296875q-1.3125 -0.390625 -2.125 -0.390625q-1.296875 0 -1.953125 0.96875q-0.65625 0.96875 -0.65625 2.28125q0 1.4375 0.734375 2.328125q0.734375 0.875 1.921875 0.875q1.046875 0 2.171875 -0.546875l0 1.328125zm6.6796875 -0.8125q-0.6875 0.625 -1.359375 0.953125q-0.671875 0.328125 -1.3125 0.328125q-0.890625 0 -1.671875 -0.59375q-0.765625 -0.609375 -0.765625 -1.75q0 -1.25 1.078125 -2.0625q1.078125 -0.8125 3.4375 -0.8125l0.359375 0l0 -1.03125q0 -0.609375 -0.171875 -0.875q-0.15625 -0.28125 -0.5 -0.4375q-0.34375 -0.15625 -0.859375 -0.15625q-1.203125 0 -2.609375 0.75l0 -1.28125q1.546875 -0.625 2.921875 -0.625q0.75 0 1.375 0.234375q0.640625 0.234375 1.015625 0.75q0.375 0.515625 0.375 1.640625l0 3.84375q0 0.640625 0.09375 0.875q0.109375 0.21875 0.28125 0.34375q0.1875 0.109375 0.4375 0.109375q0.09375 0 0.296875 -0.03125l0.109375 0.84375q-0.53125 0.265625 -1.15625 0.265625q-0.421875 0 -0.8125 -0.28125q-0.390625 -0.28125 -0.5625 -1.0zm-0.234375 -0.84375l0 -2.1875l-0.484375 -0.015625q-1.21875 0 -2.046875 0.46875q-0.8125 0.46875 -0.8125 1.265625q0 0.5625 0.40625 0.953125q0.40625 0.375 0.9375 0.375q0.484375 0 0.984375 -0.21875q0.5 -0.21875 1.015625 -0.640625zm4.6953125 1.921875l0 -12.34375l1.53125 0l0 12.34375l-1.53125 0zm4.625 0l0 -12.34375l1.53125 0l0 12.34375l-1.53125 0z" fill-rule="nonzero"/><path fill="#000000" fill-opacity="0.0" d="m10.118111 147.99672l55.90551 0l0 38.771652l-55.90551 0z" fill-rule="evenodd"/><path fill="#000000" d="m26.55561 172.0911q-1.5 0.46875 -2.578125 0.46875q-1.140625 0 -2.09375 -0.609375q-0.9375 -0.625 -1.421875 -1.625q-0.46875 -1.0 -0.46875 -2.265625q0 -1.875 1.03125 -3.125q1.046875 -1.25 3.21875 -1.25q1.0 0 2.21875 0.265625l0 1.296875q-1.3125 -0.390625 -2.125 -0.390625q-1.296875 0 -1.953125 0.96875q-0.65625 0.96875 -0.65625 2.28125q0 1.4375 0.734375 2.328125q0.734375 0.875 1.921875 0.875q1.046875 0 2.171875 -0.546875l0 1.328125zm6.6796875 -0.8125q-0.6875 0.625 -1.359375 0.953125q-0.671875 0.328125 -1.3125 0.328125q-0.890625 0 -1.671875 -0.59375q-0.765625 -0.609375 -0.765625 -1.75q0 -1.25 1.078125 -2.0625q1.078125 -0.8125 3.4375 -0.8125l0.359375 0l0 -1.03125q0 -0.609375 -0.171875 -0.875q-0.15625 -0.28125 -0.5 -0.4375q-0.34375 -0.15625 -0.859375 -0.15625q-1.203125 0 -2.609375 0.75l0 -1.28125q1.546875 -0.625 2.921875 -0.625q0.75 0 1.375 0.234375q0.640625 0.234375 1.015625 0.75q0.375 0.515625 0.375 1.640625l0 3.84375q0 0.640625 0.09375 0.875q0.109375 0.21875 0.28125 0.34375q0.1875 0.109375 0.4375 0.109375q0.09375 0 0.296875 -0.03125l0.109375 0.84375q-0.53125 0.265625 -1.15625 0.265625q-0.421875 0 -0.8125 -0.28125q-0.390625 -0.28125 -0.5625 -1.0zm-0.234375 -0.84375l0 -2.1875l-0.484375 -0.015625q-1.21875 0 -2.046875 0.46875q-0.8125 0.46875 -0.8125 1.265625q0 0.5625 0.40625 0.953125q0.40625 0.375 0.9375 0.375q0.484375 0 0.984375 -0.21875q0.5 -0.21875 1.015625 -0.640625zm4.6953125 1.921875l0 -12.34375l1.53125 0l0 12.34375l-1.53125 0zm4.625 0l0 -12.34375l1.53125 0l0 12.34375l-1.53125 0z" fill-rule="nonzero"/><path fill="#000000" fill-opacity="0.0" d="m60.007874 175.51181l112.50394 -128.50394" fill-rule="evenodd"/><path stroke="#000000" stroke-width="1.0" stroke-linejoin="round" stroke-linecap="butt" d="m60.007874 175.51181l108.55165 -123.98957" fill-rule="evenodd"/><path fill="#000000" stroke="#000000" stroke-width="1.0" stroke-linecap="butt" d="m169.80228 52.610256l1.7465668 -4.5024567l-4.232071 2.3264198z" fill-rule="evenodd"/><path fill="#000000" fill-opacity="0.0" d="m60.50656 315.6509l176.50394 -268.12598" fill-rule="evenodd"/><path stroke="#000000" stroke-width="1.0" stroke-linejoin="round" stroke-linecap="butt" d="m60.50656 315.6509l173.20486 -263.11438" fill-rule="evenodd"/><path fill="#000000" stroke="#000000" stroke-width="1.0" stroke-linecap="butt" d="m235.09106 53.44473l1.1156158 -4.698715l-3.8748932 2.8823204z" fill-rule="evenodd"/><path fill="#000000" fill-opacity="0.0" d="m174.51443 203.52231l-114.01575 20.283463" fill-rule="evenodd"/><path stroke="#000000" stroke-width="1.0" stroke-linejoin="round" stroke-linecap="butt" d="m174.51443 203.52231l-108.1085 19.232574" fill-rule="evenodd"/><path fill="#000000" stroke="#000000" stroke-width="1.0" stroke-linecap="butt" d="m66.11664 221.12868l-4.178646 2.421051l4.757244 0.8313446z" fill-rule="evenodd"/><path fill="#000000" fill-opacity="0.0" d="m237.25722 356.1496l-177.00787 -16.251953" fill-rule="evenodd"/><path stroke="#000000" stroke-width="1.0" stroke-linejoin="round" stroke-linecap="butt" d="m237.25722 356.1496l-171.033 -15.703369" fill-rule="evenodd"/><path fill="#000000" stroke="#000000" stroke-width="1.0" stroke-linecap="butt" d="m66.37523 338.8014l-4.670105 1.2299194l4.3680725 2.059723z" fill-rule="evenodd"/><path fill="#000000" fill-opacity="0.0" d="m173.49606 173.71129l69.38583 0l0 38.771652l-69.38583 0z" fill-rule="evenodd"/><path fill="#000000" d="m184.04294 198.07129l0 -8.484375l1.53125 0l0 1.59375q0.4375 -0.859375 1.140625 -1.3125q0.703125 -0.46875 1.515625 -0.46875q0.234375 0 0.5 0.03125l0 1.4375q-0.390625 -0.125 -0.703125 -0.125q-0.734375 0 -1.34375 0.4375q-0.609375 0.421875 -1.109375 1.296875l0 5.59375l-1.53125 0zm12.765625 -0.28125q-1.546875 0.484375 -2.65625 0.484375q-1.96875 0 -3.109375 -1.328125q-1.125 -1.34375 -1.125 -3.15625q0 -1.203125 0.5 -2.28125q0.5 -1.078125 1.296875 -1.59375q0.8125 -0.53125 1.90625 -0.53125q1.46875 0 2.34375 1.0625q0.875 1.046875 0.875 3.15625l0 0.46875l-5.359375 0q0.125 1.125 0.484375 1.734375q0.359375 0.609375 0.953125 0.953125q0.609375 0.328125 1.53125 0.328125q0.46875 0 0.921875 -0.078125q0.46875 -0.078125 1.4375 -0.4375l0 1.21875zm-5.25 -4.875l3.734375 0q0 -1.28125 -0.5 -1.828125q-0.484375 -0.546875 -1.265625 -0.546875q-0.875 0 -1.375 0.59375q-0.5 0.59375 -0.59375 1.78125zm11.7265625 5.15625q-0.71875 0.203125 -1.234375 0.203125q-1.140625 0 -1.8125 -0.65625q-0.671875 -0.671875 -0.671875 -1.890625l0 -4.984375l-1.0625 0l0 -1.15625l1.0625 0l0 -1.546875l1.53125 -0.140625l0 1.6875l2.21875 0l0 1.15625l-2.21875 0l0 4.703125q0 0.890625 0.34375 1.28125q0.34375 0.375 1.09375 0.375q0.3125 0 0.75 -0.09375l0 1.0625zm7.5 0l0 -1.59375q-0.59375 0.859375 -1.375 1.328125q-0.765625 0.46875 -1.59375 0.46875q-1.078125 0 -1.75 -0.6875q-0.671875 -0.6875 -0.671875 -1.90625l0 -6.09375l1.53125 0l0 5.59375q0 0.875 0.15625 1.15625q0.15625 0.28125 0.4375 0.4375q0.28125 0.15625 0.609375 0.15625q0.5625 0 1.21875 -0.34375q0.671875 -0.359375 1.4375 -1.5l0 -5.5l1.546875 0l0 8.484375l-1.546875 0zm4.6328125 0l0 -8.484375l1.53125 0l0 1.59375q0.4375 -0.859375 1.140625 -1.3125q0.703125 -0.46875 1.515625 -0.46875q0.234375 0 0.5 0.03125l0 1.4375q-0.390625 -0.125 -0.703125 -0.125q-0.734375 0 -1.34375 0.4375q-0.609375 0.421875 -1.109375 1.296875l0 5.59375l-1.53125 0zm6.546875 0l0 -8.484375l1.53125 0l0 1.59375q0.59375 -0.859375 1.359375 -1.3125q0.78125 -0.46875 1.625 -0.46875q1.078125 0 1.75 0.6875q0.671875 0.671875 0.671875 1.890625l0 6.09375l-1.546875 0l0 -5.59375q0 -0.890625 -0.15625 -1.171875q-0.15625 -0.28125 -0.4375 -0.421875q-0.28125 -0.15625 -0.59375 -0.15625q-0.578125 0 -1.234375 0.359375q-0.65625 0.34375 -1.4375 1.484375l0 5.5l-1.53125 0z" fill-rule="nonzero"/><path fill="#000000" fill-opacity="0.0" d="m169.79002 316.90814l74.01575 0l0 38.771637l-74.01575 0z" fill-rule="evenodd"/><path fill="#000000" d="m180.3369 341.26813l0 -8.484375l1.53125 0l0 1.59375q0.4375 -0.859375 1.140625 -1.3125q0.703125 -0.46875 1.515625 -0.46875q0.234375 0 0.5 0.03125l0 1.4375q-0.390625 -0.125 -0.703125 -0.125q-0.734375 0 -1.34375 0.4375q-0.609375 0.421875 -1.109375 1.296875l0 5.59375l-1.53125 0zm12.765625 -0.28125q-1.546875 0.484375 -2.65625 0.484375q-1.96875 0 -3.109375 -1.328125q-1.125 -1.34375 -1.125 -3.15625q0 -1.203125 0.5 -2.28125q0.5 -1.078125 1.296875 -1.59375q0.8125 -0.53125 1.90625 -0.53125q1.46875 0 2.34375 1.0625q0.875 1.046875 0.875 3.15625l0 0.46875l-5.359375 0q0.125 1.125 0.484375 1.734375q0.359375 0.609375 0.953125 0.953125q0.609375 0.328125 1.53125 0.328125q0.46875 0 0.921875 -0.078125q0.46875 -0.078125 1.4375 -0.4375l0 1.21875zm-5.25 -4.875l3.734375 0q0 -1.28125 -0.5 -1.828125q-0.484375 -0.546875 -1.265625 -0.546875q-0.875 0 -1.375 0.59375q-0.5 0.59375 -0.59375 1.78125zm11.7265625 5.15625q-0.71875 0.203125 -1.234375 0.203125q-1.140625 0 -1.8125 -0.65625q-0.671875 -0.671875 -0.671875 -1.890625l0 -4.984375l-1.0625 0l0 -1.15625l1.0625 0l0 -1.546875l1.53125 -0.140625l0 1.6875l2.21875 0l0 1.15625l-2.21875 0l0 4.703125q0 0.890625 0.34375 1.28125q0.34375 0.375 1.09375 0.375q0.3125 0 0.75 -0.09375l0 1.0625zm7.5 0l0 -1.59375q-0.59375 0.859375 -1.375 1.328125q-0.765625 0.46875 -1.59375 0.46875q-1.078125 0 -1.75 -0.6875q-0.671875 -0.6875 -0.671875 -1.90625l0 -6.09375l1.53125 0l0 5.59375q0 0.875 0.15625 1.15625q0.15625 0.28125 0.4375 0.4375q0.28125 0.15625 0.609375 0.15625q0.5625 0 1.21875 -0.34375q0.671875 -0.359375 1.4375 -1.5l0 -5.5l1.546875 0l0 8.484375l-1.546875 0zm4.6328125 0l0 -8.484375l1.53125 0l0 1.59375q0.4375 -0.859375 1.140625 -1.3125q0.703125 -0.46875 1.515625 -0.46875q0.234375 0 0.5 0.03125l0 1.4375q-0.390625 -0.125 -0.703125 -0.125q-0.734375 0 -1.34375 0.4375q-0.609375 0.421875 -1.109375 1.296875l0 5.59375l-1.53125 0zm6.546875 0l0 -8.484375l1.53125 0l0 1.59375q0.59375 -0.859375 1.359375 -1.3125q0.78125 -0.46875 1.625 -0.46875q1.078125 0 1.75 0.6875q0.671875 0.671875 0.671875 1.890625l0 6.09375l-1.546875 0l0 -5.59375q0 -0.890625 -0.15625 -1.171875q-0.15625 -0.28125 -0.4375 -0.421875q-0.28125 -0.15625 -0.59375 -0.15625q-0.578125 0 -1.234375 0.359375q-0.65625 0.34375 -1.4375 1.484375l0 5.5l-1.53125 0z" fill-rule="nonzero"/><path fill="#000000" fill-opacity="0.0" d="m440.00394 44.107613l0.1574707 60.409447" fill-rule="evenodd"/><path stroke="#000000" stroke-width="3.0" stroke-linejoin="round" stroke-linecap="butt" d="m440.00394 44.107613l0.110565186 42.409508" fill-rule="evenodd"/><path fill="#000000" stroke="#000000" stroke-width="3.0" stroke-linecap="butt" d="m435.1593 86.53004l4.990692 13.601334l4.9196777 -13.627167z" fill-rule="evenodd"/><path fill="#000000" fill-opacity="0.0" d="m440.1614 158.52887l-0.40942383 69.133865" fill-rule="evenodd"/><path stroke="#000000" stroke-width="3.0" stroke-linejoin="round" stroke-linecap="butt" d="m440.1614 158.52887l-0.30285645 51.13417" fill-rule="evenodd"/><path fill="#000000" stroke="#000000" stroke-width="3.0" stroke-linecap="butt" d="m434.90347 209.6337l4.874481 13.643402l5.035736 -13.584702z" fill-rule="evenodd"/><path fill="#000000" fill-opacity="0.0" d="m439.18503 258.38058l0.56695557 54.960632" fill-rule="evenodd"/><path stroke="#000000" stroke-width="3.0" stroke-linejoin="round" stroke-linecap="butt" d="m439.18503 258.38058l0.38128662 36.96158" fill-rule="evenodd"/><path fill="#000000" stroke="#000000" stroke-width="3.0" stroke-linecap="butt" d="m434.61136 295.39328l5.0953674 13.562439l4.814514 -13.664673z" fill-rule="evenodd"/><path fill="#000000" fill-opacity="0.0" d="m365.9029 267.80054l83.68506 0l0 38.771637l-83.68506 0z" fill-rule="evenodd"/><path fill="#000000" d="m381.88727 292.16052l0 -1.59375q-0.46875 0.890625 -1.171875 1.34375q-0.703125 0.453125 -1.65625 0.453125q-1.5625 0 -2.421875 -1.15625q-0.859375 -1.15625 -0.859375 -3.03125q0 -2.015625 0.96875 -3.34375q0.96875 -1.34375 2.640625 -1.34375q0.5 0 0.9375 0.125q0.453125 0.109375 0.796875 0.328125q0.34375 0.203125 0.765625 0.703125l0 -4.828125l1.546875 0l0 12.34375l-1.546875 0zm0 -6.46875q-0.796875 -0.703125 -1.265625 -0.875q-0.453125 -0.171875 -1.0 -0.171875q-1.125 0 -1.671875 0.953125q-0.53125 0.9375 -0.53125 2.421875q0 1.390625 0.46875 2.1875q0.484375 0.796875 1.5 0.796875q0.640625 0 1.265625 -0.34375q0.625 -0.359375 1.234375 -1.0625l0 -3.90625zm10.8515625 6.1875q-1.546875 0.484375 -2.65625 0.484375q-1.96875 0 -3.109375 -1.328125q-1.125 -1.34375 -1.125 -3.15625q0 -1.203125 0.5 -2.28125q0.5 -1.078125 1.296875 -1.59375q0.8125 -0.53125 1.90625 -0.53125q1.46875 0 2.34375 1.0625q0.875 1.046875 0.875 3.15625l0 0.46875l-5.359375 0q0.125 1.125 0.484375 1.734375q0.359375 0.609375 0.953125 0.953125q0.609375 0.328125 1.53125 0.328125q0.46875 0 0.921875 -0.078125q0.46875 -0.078125 1.4375 -0.4375l0 1.21875zm-5.25 -4.875l3.734375 0q0 -1.28125 -0.5 -1.828125q-0.484375 -0.546875 -1.265625 -0.546875q-0.875 0 -1.375 0.59375q-0.5 0.59375 -0.59375 1.78125zm7.6328125 4.859375l0 -1.421875q1.5 0.75 2.625 0.75q0.65625 0 1.09375 -0.359375q0.4375 -0.359375 0.4375 -0.890625q0 -0.34375 -0.21875 -0.65625q-0.21875 -0.328125 -1.0 -0.65625l-0.90625 -0.375q-1.03125 -0.4375 -1.515625 -1.0q-0.46875 -0.5625 -0.46875 -1.390625q0 -1.015625 0.734375 -1.6875q0.75 -0.6875 2.203125 -0.6875q0.703125 0 1.75 0.1875l0.328125 0.0625l0 1.28125q-1.296875 -0.375 -2.0625 -0.375q-0.734375 0 -1.109375 0.328125q-0.359375 0.3125 -0.359375 0.75q0 0.34375 0.25 0.609375q0.234375 0.28125 0.875 0.5625l0.734375 0.3125q1.5 0.625 1.90625 1.25q0.40625 0.609375 0.40625 1.34375q0 0.6875 -0.390625 1.28125q-0.375 0.59375 -1.109375 0.9375q-0.734375 0.34375 -1.640625 0.34375q-1.0625 0 -2.5625 -0.5zm12.25 0.296875q-0.71875 0.203125 -1.234375 0.203125q-1.140625 0 -1.8125 -0.65625q-0.671875 -0.671875 -0.671875 -1.890625l0 -4.984375l-1.0625 0l0 -1.15625l1.0625 0l0 -1.546875l1.53125 -0.140625l0 1.6875l2.21875 0l0 1.15625l-2.21875 0l0 4.703125q0 0.890625 0.34375 1.28125q0.34375 0.375 1.09375 0.375q0.3125 0 0.75 -0.09375l0 1.0625zm2.203125 0l0 -8.484375l1.53125 0l0 1.59375q0.4375 -0.859375 1.140625 -1.3125q0.703125 -0.46875 1.515625 -0.46875q0.234375 0 0.5 0.03125l0 1.4375q-0.390625 -0.125 -0.703125 -0.125q-0.734375 0 -1.34375 0.4375q-0.609375 0.421875 -1.109375 1.296875l0 5.59375l-1.53125 0zm9.921875 0.203125q-1.21875 0 -2.109375 -0.5q-0.890625 -0.5 -1.421875 -1.5625q-0.515625 -1.078125 -0.515625 -2.390625q0 -1.234375 0.46875 -2.28125q0.484375 -1.0625 1.390625 -1.59375q0.90625 -0.546875 2.1875 -0.546875q1.203125 0 2.09375 0.5q0.90625 0.484375 1.421875 1.5625q0.53125 1.0625 0.53125 2.359375q0 1.25 -0.484375 2.3125q-0.484375 1.0625 -1.390625 1.609375q-0.90625 0.53125 -2.171875 0.53125zm0 -1.171875q1.140625 0 1.765625 -0.84375q0.640625 -0.859375 0.640625 -2.4375q0 -1.578125 -0.640625 -2.421875q-0.625 -0.84375 -1.765625 -0.84375q-1.140625 0 -1.78125 0.84375q-0.625 0.84375 -0.625 2.421875q0 1.578125 0.625 2.4375q0.640625 0.84375 1.78125 0.84375zm6.9375 4.0625l1.375 -3.09375l-3.28125 -8.484375l1.671875 0l2.421875 6.390625l2.59375 -6.390625l1.453125 0l-4.625 11.578125l-1.609375 0z" fill-rule="nonzero"/><path fill="#000000" fill-opacity="0.0" d="m393.40158 60.937008l52.97638 0l0 38.771656l-52.97638 0z" fill-rule="evenodd"/><path fill="#000000" d="m409.83908 85.03138q-1.5 0.46875 -2.578125 0.46875q-1.140625 0 -2.09375 -0.609375q-0.9375 -0.625 -1.421875 -1.625q-0.46875 -1.0 -0.46875 -2.265625q0 -1.875 1.03125 -3.125q1.046875 -1.25 3.21875 -1.25q1.0 0 2.21875 0.265625l0 1.296875q-1.3125 -0.390625 -2.125 -0.390625q-1.296875 0 -1.953125 0.96875q-0.65625 0.96875 -0.65625 2.28125q0 1.4375 0.734375 2.328125q0.734375 0.875 1.921875 0.875q1.046875 0 2.171875 -0.546875l0 1.328125zm6.6796875 -0.8125q-0.6875 0.625 -1.359375 0.953125q-0.671875 0.328125 -1.3125 0.328125q-0.890625 0 -1.671875 -0.59375q-0.765625 -0.609375 -0.765625 -1.75q0 -1.25 1.078125 -2.0625q1.078125 -0.8125 3.4375 -0.8125l0.359375 0l0 -1.03125q0 -0.609375 -0.171875 -0.875q-0.15625 -0.28125 -0.5 -0.4375q-0.34375 -0.15625 -0.859375 -0.15625q-1.203125 0 -2.609375 0.75l0 -1.28125q1.546875 -0.625 2.921875 -0.625q0.75 0 1.375 0.234375q0.640625 0.234375 1.015625 0.75q0.375 0.515625 0.375 1.640625l0 3.84375q0 0.640625 0.09375 0.875q0.109375 0.21875 0.28125 0.34375q0.1875 0.109375 0.4375 0.109375q0.09375 0 0.296875 -0.03125l0.109375 0.84375q-0.53125 0.265625 -1.15625 0.265625q-0.421875 0 -0.8125 -0.28125q-0.390625 -0.28125 -0.5625 -1.0zm-0.234375 -0.84375l0 -2.1875l-0.484375 -0.015625q-1.21875 0 -2.046875 0.46875q-0.8125 0.46875 -0.8125 1.265625q0 0.5625 0.40625 0.953125q0.40625 0.375 0.9375 0.375q0.484375 0 0.984375 -0.21875q0.5 -0.21875 1.015625 -0.640625zm4.6953125 1.921875l0 -12.34375l1.53125 0l0 12.34375l-1.53125 0zm4.625 0l0 -12.34375l1.53125 0l0 12.34375l-1.53125 0z" fill-rule="nonzero"/><path fill="#000000" fill-opacity="0.0" d="m588.21783 44.107613l-0.18896484 73.88976" fill-rule="evenodd"/><path stroke="#000000" stroke-width="3.0" stroke-linejoin="round" stroke-linecap="butt" d="m588.21783 44.107613l-0.1428833 55.889824" fill-rule="evenodd"/><path fill="#000000" stroke="#000000" stroke-width="3.0" stroke-linecap="butt" d="m583.11975 99.984764l4.920349 13.626915l4.98999 -13.60157z" fill-rule="evenodd"/><path fill="#000000" fill-opacity="0.0" d="m588.16797 158.51443l-0.25195312 72.8819" fill-rule="evenodd"/><path stroke="#000000" stroke-width="3.0" stroke-linejoin="round" stroke-linecap="butt" d="m588.1679 158.51443l-0.18969727 54.88199" fill-rule="evenodd"/><path fill="#000000" stroke="#000000" stroke-width="3.0" stroke-linecap="butt" d="m583.023 213.3793l4.908142 13.631348l5.0021973 -13.597092z" fill-rule="evenodd"/><path fill="#000000" fill-opacity="0.0" d="m591.04987 201.48294l88.346436 0l0 38.771652l-88.346436 0z" fill-rule="evenodd"/><path fill="#000000" d="m601.28424 225.54607l0 -1.421875q1.5 0.75 2.625 0.75q0.65625 0 1.09375 -0.359375q0.4375 -0.359375 0.4375 -0.890625q0 -0.34375 -0.21875 -0.65625q-0.21875 -0.328125 -1.0 -0.65625l-0.90625 -0.375q-1.03125 -0.4375 -1.515625 -1.0q-0.46875 -0.5625 -0.46875 -1.390625q0 -1.015625 0.734375 -1.6875q0.75 -0.6875 2.203125 -0.6875q0.703125 0 1.75 0.1875l0.328125 0.0625l0 1.28125q-1.296875 -0.375 -2.0625 -0.375q-0.734375 0 -1.109375 0.328125q-0.359375 0.3125 -0.359375 0.75q0 0.34375 0.25 0.609375q0.234375 0.28125 0.875 0.5625l0.734375 0.3125q1.5 0.625 1.90625 1.25q0.40625 0.609375 0.40625 1.34375q0 0.6875 -0.390625 1.28125q-0.375 0.59375 -1.109375 0.9375q-0.734375 0.34375 -1.640625 0.34375q-1.0625 0 -2.5625 -0.5zm13.765625 0.296875l0 -1.59375q-0.59375 0.859375 -1.375 1.328125q-0.765625 0.46875 -1.59375 0.46875q-1.078125 0 -1.75 -0.6875q-0.671875 -0.6875 -0.671875 -1.90625l0 -6.09375l1.53125 0l0 5.59375q0 0.875 0.15625 1.15625q0.15625 0.28125 0.4375 0.4375q0.28125 0.15625 0.609375 0.15625q0.5625 0 1.21875 -0.34375q0.671875 -0.359375 1.4375 -1.5l0 -5.5l1.546875 0l0 8.484375l-1.546875 0zm4.3203125 -0.296875l0 -1.421875q1.5 0.75 2.625 0.75q0.65625 0 1.09375 -0.359375q0.4375 -0.359375 0.4375 -0.890625q0 -0.34375 -0.21875 -0.65625q-0.21875 -0.328125 -1.0 -0.65625l-0.90625 -0.375q-1.03125 -0.4375 -1.515625 -1.0q-0.46875 -0.5625 -0.46875 -1.390625q0 -1.015625 0.734375 -1.6875q0.75 -0.6875 2.203125 -0.6875q0.703125 0 1.75 0.1875l0.328125 0.0625l0 1.28125q-1.296875 -0.375 -2.0625 -0.375q-0.734375 0 -1.109375 0.328125q-0.359375 0.3125 -0.359375 0.75q0 0.34375 0.25 0.609375q0.234375 0.28125 0.875 0.5625l0.734375 0.3125q1.5 0.625 1.90625 1.25q0.40625 0.609375 0.40625 1.34375q0 0.6875 -0.390625 1.28125q-0.375 0.59375 -1.109375 0.9375q-0.734375 0.34375 -1.640625 0.34375q-1.0625 0 -2.5625 -0.5zm8.46875 3.390625l0 -11.578125l1.53125 0l0 1.59375q0.484375 -0.890625 1.1875 -1.328125q0.703125 -0.453125 1.65625 -0.453125q1.5625 0 2.421875 1.15625q0.859375 1.15625 0.859375 3.015625q0 1.203125 -0.40625 2.296875q-0.390625 1.09375 -1.234375 1.75q-0.828125 0.65625 -1.890625 0.65625q-0.421875 0 -1.125 -0.140625q-0.6875 -0.125 -1.46875 -1.03125l0 4.0625l-1.53125 0zm1.53125 -5.125q0.796875 0.703125 1.265625 0.890625q0.46875 0.171875 1.0 0.171875q1.140625 0 1.671875 -0.953125q0.546875 -0.953125 0.546875 -2.421875q0 -1.375 -0.484375 -2.171875q-0.46875 -0.8125 -1.484375 -0.8125q-0.640625 0 -1.265625 0.34375q-0.625 0.34375 -1.25 1.046875l0 3.90625zm14.7578125 1.75q-1.546875 0.484375 -2.65625 0.484375q-1.96875 0 -3.109375 -1.328125q-1.125 -1.34375 -1.125 -3.15625q0 -1.203125 0.5 -2.28125q0.5 -1.078125 1.296875 -1.59375q0.8125 -0.53125 1.90625 -0.53125q1.46875 0 2.34375 1.0625q0.875 1.046875 0.875 3.15625l0 0.46875l-5.359375 0q0.125 1.125 0.484375 1.734375q0.359375 0.609375 0.953125 0.953125q0.609375 0.328125 1.53125 0.328125q0.46875 0 0.921875 -0.078125q0.46875 -0.078125 1.4375 -0.4375l0 1.21875zm-5.25 -4.875l3.734375 0q0 -1.28125 -0.5 -1.828125q-0.484375 -0.546875 -1.265625 -0.546875q-0.875 0 -1.375 0.59375q-0.5 0.59375 -0.59375 1.78125zm7.9453125 5.15625l0 -8.484375l1.53125 0l0 1.59375q0.59375 -0.859375 1.359375 -1.3125q0.78125 -0.46875 1.625 -0.46875q1.078125 0 1.75 0.6875q0.671875 0.671875 0.671875 1.890625l0 6.09375l-1.546875 0l0 -5.59375q0 -0.890625 -0.15625 -1.171875q-0.15625 -0.28125 -0.4375 -0.421875q-0.28125 -0.15625 -0.59375 -0.15625q-0.578125 0 -1.234375 0.359375q-0.65625 0.34375 -1.4375 1.484375l0 5.5l-1.53125 0zm15.3671875 0l0 -1.59375q-0.46875 0.890625 -1.171875 1.34375q-0.703125 0.453125 -1.65625 0.453125q-1.5625 0 -2.421875 -1.15625q-0.859375 -1.15625 -0.859375 -3.03125q0 -2.015625 0.96875 -3.34375q0.96875 -1.34375 2.640625 -1.34375q0.5 0 0.9375 0.125q0.453125 0.109375 0.796875 0.328125q0.34375 0.203125 0.765625 0.703125l0 -4.828125l1.546875 0l0 12.34375l-1.546875 0zm0 -6.46875q-0.796875 -0.703125 -1.265625 -0.875q-0.453125 -0.171875 -1.0 -0.171875q-1.125 0 -1.671875 0.953125q-0.53125 0.9375 -0.53125 2.421875q0 1.390625 0.46875 2.1875q0.484375 0.796875 1.5 0.796875q0.640625 0 1.265625 -0.34375q0.625 -0.359375 1.234375 -1.0625l0 -3.90625z" fill-rule="nonzero"/><path fill="#000000" fill-opacity="0.0" d="m591.04987 84.33071l90.86615 0l0 38.771652l-90.86615 0z" fill-rule="evenodd"/><path fill="#000000" d="m601.28424 108.39384l0 -1.421875q1.5 0.75 2.625 0.75q0.65625 0 1.09375 -0.359375q0.4375 -0.359375 0.4375 -0.890625q0 -0.34375 -0.21875 -0.65625q-0.21875 -0.328125 -1.0 -0.65625l-0.90625 -0.375q-1.03125 -0.4375 -1.515625 -1.0q-0.46875 -0.5625 -0.46875 -1.390625q0 -1.015625 0.734375 -1.6875q0.75 -0.6875 2.203125 -0.6875q0.703125 0 1.75 0.1875l0.328125 0.0625l0 1.28125q-1.296875 -0.375 -2.0625 -0.375q-0.734375 0 -1.109375 0.328125q-0.359375 0.3125 -0.359375 0.75q0 0.34375 0.25 0.609375q0.234375 0.28125 0.875 0.5625l0.734375 0.3125q1.5 0.625 1.90625 1.25q0.40625 0.609375 0.40625 1.34375q0 0.6875 -0.390625 1.28125q-0.375 0.59375 -1.109375 0.9375q-0.734375 0.34375 -1.640625 0.34375q-1.0625 0 -2.5625 -0.5zm13.765625 0.296875l0 -1.59375q-0.59375 0.859375 -1.375 1.328125q-0.765625 0.46875 -1.59375 0.46875q-1.078125 0 -1.75 -0.6875q-0.671875 -0.6875 -0.671875 -1.90625l0 -6.09375l1.53125 0l0 5.59375q0 0.875 0.15625 1.15625q0.15625 0.28125 0.4375 0.4375q0.28125 0.15625 0.609375 0.15625q0.5625 0 1.21875 -0.34375q0.671875 -0.359375 1.4375 -1.5l0 -5.5l1.546875 0l0 8.484375l-1.546875 0zm4.3203125 -0.296875l0 -1.421875q1.5 0.75 2.625 0.75q0.65625 0 1.09375 -0.359375q0.4375 -0.359375 0.4375 -0.890625q0 -0.34375 -0.21875 -0.65625q-0.21875 -0.328125 -1.0 -0.65625l-0.90625 -0.375q-1.03125 -0.4375 -1.515625 -1.0q-0.46875 -0.5625 -0.46875 -1.390625q0 -1.015625 0.734375 -1.6875q0.75 -0.6875 2.203125 -0.6875q0.703125 0 1.75 0.1875l0.328125 0.0625l0 1.28125q-1.296875 -0.375 -2.0625 -0.375q-0.734375 0 -1.109375 0.328125q-0.359375 0.3125 -0.359375 0.75q0 0.34375 0.25 0.609375q0.234375 0.28125 0.875 0.5625l0.734375 0.3125q1.5 0.625 1.90625 1.25q0.40625 0.609375 0.40625 1.34375q0 0.6875 -0.390625 1.28125q-0.375 0.59375 -1.109375 0.9375q-0.734375 0.34375 -1.640625 0.34375q-1.0625 0 -2.5625 -0.5zm8.46875 3.390625l0 -11.578125l1.53125 0l0 1.59375q0.484375 -0.890625 1.1875 -1.328125q0.703125 -0.453125 1.65625 -0.453125q1.5625 0 2.421875 1.15625q0.859375 1.15625 0.859375 3.015625q0 1.203125 -0.40625 2.296875q-0.390625 1.09375 -1.234375 1.75q-0.828125 0.65625 -1.890625 0.65625q-0.421875 0 -1.125 -0.140625q-0.6875 -0.125 -1.46875 -1.03125l0 4.0625l-1.53125 0zm1.53125 -5.125q0.796875 0.703125 1.265625 0.890625q0.46875 0.171875 1.0 0.171875q1.140625 0 1.671875 -0.953125q0.546875 -0.953125 0.546875 -2.421875q0 -1.375 -0.484375 -2.171875q-0.46875 -0.8125 -1.484375 -0.8125q-0.640625 0 -1.265625 0.34375q-0.625 0.34375 -1.25 1.046875l0 3.90625zm14.7578125 1.75q-1.546875 0.484375 -2.65625 0.484375q-1.96875 0 -3.109375 -1.328125q-1.125 -1.34375 -1.125 -3.15625q0 -1.203125 0.5 -2.28125q0.5 -1.078125 1.296875 -1.59375q0.8125 -0.53125 1.90625 -0.53125q1.46875 0 2.34375 1.0625q0.875 1.046875 0.875 3.15625l0 0.46875l-5.359375 0q0.125 1.125 0.484375 1.734375q0.359375 0.609375 0.953125 0.953125q0.609375 0.328125 1.53125 0.328125q0.46875 0 0.921875 -0.078125q0.46875 -0.078125 1.4375 -0.4375l0 1.21875zm-5.25 -4.875l3.734375 0q0 -1.28125 -0.5 -1.828125q-0.484375 -0.546875 -1.265625 -0.546875q-0.875 0 -1.375 0.59375q-0.5 0.59375 -0.59375 1.78125zm7.9453125 5.15625l0 -8.484375l1.53125 0l0 1.59375q0.59375 -0.859375 1.359375 -1.3125q0.78125 -0.46875 1.625 -0.46875q1.078125 0 1.75 0.6875q0.671875 0.671875 0.671875 1.890625l0 6.09375l-1.546875 0l0 -5.59375q0 -0.890625 -0.15625 -1.171875q-0.15625 -0.28125 -0.4375 -0.421875q-0.28125 -0.15625 -0.59375 -0.15625q-0.578125 0 -1.234375 0.359375q-0.65625 0.34375 -1.4375 1.484375l0 5.5l-1.53125 0zm15.3671875 0l0 -1.59375q-0.46875 0.890625 -1.171875 1.34375q-0.703125 0.453125 -1.65625 0.453125q-1.5625 0 -2.421875 -1.15625q-0.859375 -1.15625 -0.859375 -3.03125q0 -2.015625 0.96875 -3.34375q0.96875 -1.34375 2.640625 -1.34375q0.5 0 0.9375 0.125q0.453125 0.109375 0.796875 0.328125q0.34375 0.203125 0.765625 0.703125l0 -4.828125l1.546875 0l0 12.34375l-1.546875 0zm0 -6.46875q-0.796875 -0.703125 -1.265625 -0.875q-0.453125 -0.171875 -1.0 -0.171875q-1.125 0 -1.671875 0.953125q-0.53125 0.9375 -0.53125 2.421875q0 1.390625 0.46875 2.1875q0.484375 0.796875 1.5 0.796875q0.640625 0 1.265625 -0.34375q0.625 -0.359375 1.234375 -1.0625l0 -3.90625z" fill-rule="nonzero"/><path fill="#000000" fill-opacity="0.0" d="m440.24933 103.25722l147.9685 -59.149605" fill-rule="evenodd"/><path stroke="#000000" stroke-width="1.0" stroke-linejoin="round" stroke-linecap="butt" d="m440.24933 103.25722l142.39716 -56.92249" fill-rule="evenodd"/><path fill="#000000" stroke="#000000" stroke-width="1.0" stroke-linecap="butt" d="m583.2596 47.868458l3.60083 -3.2182083l-4.8270264 0.1507492z" fill-rule="evenodd"/><path fill="#000000" fill-opacity="0.0" d="m588.21655 116.53543l-148.189 42.267715" fill-rule="evenodd"/><path stroke="#000000" stroke-width="1.0" stroke-linejoin="round" stroke-linecap="butt" d="m588.21655 116.53543l-142.4191 40.621994" fill-rule="evenodd"/><path fill="#000000" stroke="#000000" stroke-width="1.0" stroke-linecap="butt" d="m445.3444 155.56903l-3.9110107 2.83313l4.817108 0.3436432z" fill-rule="evenodd"/><path fill="#000000" fill-opacity="0.0" d="m440.00787 226.12073l148.50397 -67.49606" fill-rule="evenodd"/><path stroke="#000000" stroke-width="1.0" stroke-linejoin="round" stroke-linecap="butt" d="m440.00787 226.12073l143.04169 -65.01341" fill-rule="evenodd"/><path fill="#000000" stroke="#000000" stroke-width="1.0" stroke-linecap="butt" d="m583.733 162.61102l3.447937 -3.3814545l-4.8148193 0.3740387z" fill-rule="evenodd"/><path fill="#000000" fill-opacity="0.0" d="m588.0079 229.20473l-147.21259 29.16536" fill-rule="evenodd"/><path stroke="#000000" stroke-width="1.0" stroke-linejoin="round" stroke-linecap="butt" d="m588.0079 229.20473l-141.32697 27.999313" fill-rule="evenodd"/><path fill="#000000" stroke="#000000" stroke-width="1.0" stroke-linecap="butt" d="m446.3599 255.5838l-4.1305847 2.5021667l4.772583 0.73831177z" fill-rule="evenodd"/><path fill="#000000" fill-opacity="0.0" d="m365.89764 170.27559l83.68503 0l0 38.771652l-83.68503 0z" fill-rule="evenodd"/><path fill="#000000" d="m376.44452 194.63559l0 -8.484375l1.53125 0l0 1.59375q0.4375 -0.859375 1.140625 -1.3125q0.703125 -0.46875 1.515625 -0.46875q0.234375 0 0.5 0.03125l0 1.4375q-0.390625 -0.125 -0.703125 -0.125q-0.734375 0 -1.34375 0.4375q-0.609375 0.421875 -1.109375 1.296875l0 5.59375l-1.53125 0zm12.765625 -0.28125q-1.546875 0.484375 -2.65625 0.484375q-1.96875 0 -3.109375 -1.328125q-1.125 -1.34375 -1.125 -3.15625q0 -1.203125 0.5 -2.28125q0.5 -1.078125 1.296875 -1.59375q0.8125 -0.53125 1.90625 -0.53125q1.46875 0 2.34375 1.0625q0.875 1.046875 0.875 3.15625l0 0.46875l-5.359375 0q0.125 1.125 0.484375 1.734375q0.359375 0.609375 0.953125 0.953125q0.609375 0.328125 1.53125 0.328125q0.46875 0 0.921875 -0.078125q0.46875 -0.078125 1.4375 -0.4375l0 1.21875zm-5.25 -4.875l3.734375 0q0 -1.28125 -0.5 -1.828125q-0.484375 -0.546875 -1.265625 -0.546875q-0.875 0 -1.375 0.59375q-0.5 0.59375 -0.59375 1.78125zm7.6328125 4.859375l0 -1.421875q1.5 0.75 2.625 0.75q0.65625 0 1.09375 -0.359375q0.4375 -0.359375 0.4375 -0.890625q0 -0.34375 -0.21875 -0.65625q-0.21875 -0.328125 -1.0 -0.65625l-0.90625 -0.375q-1.03125 -0.4375 -1.515625 -1.0q-0.46875 -0.5625 -0.46875 -1.390625q0 -1.015625 0.734375 -1.6875q0.75 -0.6875 2.203125 -0.6875q0.703125 0 1.75 0.1875l0.328125 0.0625l0 1.28125q-1.296875 -0.375 -2.0625 -0.375q-0.734375 0 -1.109375 0.328125q-0.359375 0.3125 -0.359375 0.75q0 0.34375 0.25 0.609375q0.234375 0.28125 0.875 0.5625l0.734375 0.3125q1.5 0.625 1.90625 1.25q0.40625 0.609375 0.40625 1.34375q0 0.6875 -0.390625 1.28125q-0.375 0.59375 -1.109375 0.9375q-0.734375 0.34375 -1.640625 0.34375q-1.0625 0 -2.5625 -0.5zm13.765625 0.296875l0 -1.59375q-0.59375 0.859375 -1.375 1.328125q-0.765625 0.46875 -1.59375 0.46875q-1.078125 0 -1.75 -0.6875q-0.671875 -0.6875 -0.671875 -1.90625l0 -6.09375l1.53125 0l0 5.59375q0 0.875 0.15625 1.15625q0.15625 0.28125 0.4375 0.4375q0.28125 0.15625 0.609375 0.15625q0.5625 0 1.21875 -0.34375q0.671875 -0.359375 1.4375 -1.5l0 -5.5l1.546875 0l0 8.484375l-1.546875 0zm4.6328125 0l0 -8.484375l1.53125 0l0 1.59375q0.46875 -0.75 1.203125 -1.265625q0.734375 -0.515625 1.6875 -0.515625q0.5625 0 0.96875 0.1875q0.421875 0.171875 0.75 0.5q0.34375 0.328125 0.609375 1.09375q0.46875 -0.765625 1.1875 -1.28125q0.71875 -0.515625 1.65625 -0.515625q0.90625 0 1.625 0.5625q0.734375 0.5625 0.734375 1.953125l0 6.171875l-1.546875 0l0 -5.9375q0 -0.84375 -0.359375 -1.140625q-0.359375 -0.3125 -0.796875 -0.3125q-0.546875 0 -1.140625 0.34375q-0.578125 0.34375 -1.359375 1.359375l0 5.6875l-1.546875 0l0 -5.9375q0 -0.84375 -0.359375 -1.140625q-0.359375 -0.3125 -0.8125 -0.3125q-0.5625 0 -1.125 0.34375q-0.5625 0.328125 -1.375 1.359375l0 5.6875l-1.53125 0zm21.15625 -0.28125q-1.546875 0.484375 -2.65625 0.484375q-1.96875 0 -3.109375 -1.328125q-1.125 -1.34375 -1.125 -3.15625q0 -1.203125 0.5 -2.28125q0.5 -1.078125 1.296875 -1.59375q0.8125 -0.53125 1.90625 -0.53125q1.46875 0 2.34375 1.0625q0.875 1.046875 0.875 3.15625l0 0.46875l-5.359375 0q0.125 1.125 0.484375 1.734375q0.359375 0.609375 0.953125 0.953125q0.609375 0.328125 1.53125 0.328125q0.46875 0 0.921875 -0.078125q0.46875 -0.078125 1.4375 -0.4375l0 1.21875zm-5.25 -4.875l3.734375 0q0 -1.28125 -0.5 -1.828125q-0.484375 -0.546875 -1.265625 -0.546875q-0.875 0 -1.375 0.59375q-0.5 0.59375 -0.59375 1.78125z" fill-rule="nonzero"/><path fill="#000000" fill-opacity="0.0" d="m590.66797 295.61023l0.12597656 57.637787" fill-rule="evenodd"/><path stroke="#000000" stroke-width="3.0" stroke-linejoin="round" stroke-linecap="butt" d="m590.66797 295.61023l0.08666992 39.637848" fill-rule="evenodd"/><path fill="#000000" stroke="#000000" stroke-width="3.0" stroke-linecap="butt" d="m585.79944 335.2589l4.9849243 13.603424l4.925415 -13.625092z" fill-rule="evenodd"/><path fill="#000000" fill-opacity="0.0" d="m439.75592 311.70602l151.24408 -16.188965" fill-rule="evenodd"/><path stroke="#000000" stroke-width="1.0" stroke-linejoin="round" stroke-linecap="butt" d="m439.75592 311.70602l145.27814 -15.5503845" fill-rule="evenodd"/><path fill="#000000" stroke="#000000" stroke-width="1.0" stroke-linecap="butt" d="m585.2099 297.798l4.336487 -2.1253662l-4.6881104 -1.1593323z" fill-rule="evenodd"/><path fill="#000000" fill-opacity="0.0" d="m591.2021 351.25986l-150.74014 -6.9921265" fill-rule="evenodd"/><path stroke="#000000" stroke-width="1.0" stroke-linejoin="round" stroke-linecap="butt" d="m591.2021 351.25986l-144.74658 -6.714142" fill-rule="evenodd"/><path fill="#000000" stroke="#000000" stroke-width="1.0" stroke-linecap="butt" d="m446.53204 342.89578l-4.6097717 1.4396667l4.4566956 1.8602295z" fill-rule="evenodd"/><path fill="#000000" fill-opacity="0.0" d="m439.18503 343.5118l0.15750122 67.1181" fill-rule="evenodd"/><path stroke="#000000" stroke-width="3.0" stroke-linejoin="round" stroke-linecap="butt" d="m439.18503 343.5118l0.11526489 49.118164" fill-rule="evenodd"/><path fill="#000000" stroke="#000000" stroke-width="3.0" stroke-linecap="butt" d="m434.3451 392.6416l4.9871216 13.602631l4.9232483 -13.625885z" fill-rule="evenodd"/></g></svg>