<svg version="1.1" viewBox="0.0 0.0 902.5223097112861 322.8530183727034" fill="none" stroke="none" stroke-linecap="square" stroke-miterlimit="10" xmlns:xlink="http://www.w3.org/1999/xlink" xmlns="http://www.w3.org/2000/svg"><clipPath id="p.0"><path d="m0 0l902.52234 0l0 322.85303l-902.52234 0l0 -322.85303z" clip-rule="nonzero"/></clipPath><g clip-path="url(#p.0)"><path fill="#000000" fill-opacity="0.0" d="m0 0l902.52234 0l0 322.85303l-902.52234 0z" fill-rule="evenodd"/><path fill="#cfe2f3" d="m14.167979 97.62992l186.70866 0l0 42.015755l-186.70866 0z" fill-rule="evenodd"/><path stroke="#000000" stroke-width="2.0" stroke-linejoin="round" stroke-linecap="butt" d="m14.167979 97.62992l186.70866 0l0 42.015755l-186.70866 0z" fill-rule="evenodd"/><path fill="#000000" d="m53.452 124.497795q-0.71875 0.203125 -1.234375 0.203125q-1.140625 0 -1.8125 -0.65625q-0.671875 -0.671875 -0.671875 -1.890625l0 -4.984375l-1.0625 0l0 -1.15625l1.0625 0l0 -1.546875l1.53125 -0.140625l0 1.6875l2.21875 0l0 1.15625l-2.21875 0l0 4.703125q0 0.890625 0.34375 1.28125q0.34375 0.375 1.09375 0.375q0.3125 0 0.75 -0.09375l0 1.0625zm2.203125 0l0 -8.484375l1.53125 0l0 1.59375q0.4375 -0.859375 1.140625 -1.3125q0.703125 -0.46875 1.515625 -0.46875q0.234375 0 0.5 0.03125l0 1.4375q-0.390625 -0.125 -0.703125 -0.125q-0.734375 0 -1.34375 0.4375q-0.609375 0.421875 -1.109375 1.296875l0 5.59375l-1.53125 0zm10.921871 -1.078125q-0.6875 0.625 -1.359375 0.953125q-0.671875 0.328125 -1.3124962 0.328125q-0.890625 0 -1.671875 -0.59375q-0.765625 -0.609375 -0.765625 -1.75q0 -1.25 1.078125 -2.0625q1.078125 -0.8125 3.4374962 -0.8125l0.359375 0l0 -1.03125q0 -0.609375 -0.171875 -0.875q-0.15625 -0.28125 -0.5 -0.4375q-0.34375 -0.15625 -0.859375 -0.15625q-1.2031212 0 -2.6093712 0.75l0 -1.28125q1.546875 -0.625 2.9218712 -0.625q0.75 0 1.375 0.234375q0.640625 0.234375 1.015625 0.75q0.375 0.515625 0.375 1.640625l0 3.84375q0 0.640625 0.09375 0.875q0.109375 0.21875 0.28125 0.34375q0.1875 0.109375 0.4375 0.109375q0.09375 0 0.296875 -0.03125l0.109375 0.84375q-0.53125 0.265625 -1.15625 0.265625q-0.421875 0 -0.8125 -0.28125q-0.390625 -0.28125 -0.5625 -1.0zm-0.234375 -0.84375l0 -2.1875l-0.484375 -0.015625q-1.21875 0 -2.0468712 0.46875q-0.8125 0.46875 -0.8125 1.265625q0 0.5625 0.40625 0.953125q0.40625 0.375 0.9374962 0.375q0.484375 0 0.984375 -0.21875q0.5 -0.21875 1.015625 -0.640625zm4.6953125 1.921875l0 -8.484375l1.53125 0l0 1.59375q0.59375 -0.859375 1.359375 -1.3125q0.78125 -0.46875 1.625 -0.46875q1.078125 0 1.75 0.6875q0.671875 0.671875 0.671875 1.890625l0 6.09375l-1.546875 0l0 -5.59375q0 -0.890625 -0.15625 -1.171875q-0.15625 -0.28125 -0.4375 -0.421875q-0.28125 -0.15625 -0.59375 -0.15625q-0.578125 0 -1.234375 0.359375q-0.65625 0.34375 -1.4375 1.484375l0 5.5l-1.53125 0zm9.6171875 -0.296875l0 -1.421875q1.5 0.75 2.625 0.75q0.65625 0 1.09375 -0.359375q0.4375 -0.359375 0.4375 -0.890625q0 -0.34375 -0.21875 -0.65625q-0.21875 -0.328125 -1.0 -0.65625l-0.90625 -0.375q-1.03125 -0.4375 -1.515625 -1.0q-0.46875 -0.5625 -0.46875 -1.390625q0 -1.015625 0.734375 -1.6875q0.75 -0.6875 2.203125 -0.6875q0.703125 0 1.75 0.1875l0.328125 0.0625l0 1.28125q-1.296875 -0.375 -2.0625 -0.375q-0.734375 0 -1.109375 0.328125q-0.359375 0.3125 -0.359375 0.75q0 0.34375 0.25 0.609375q0.234375 0.28125 0.875 0.5625l0.734375 0.3125q1.5 0.625 1.90625 1.25q0.40625 0.609375 0.40625 1.34375q0 0.6875 -0.390625 1.28125q-0.375 0.59375 -1.109375 0.9375q-0.734375 0.34375 -1.640625 0.34375q-1.0625 0 -2.5625 -0.5zm8.75 0.296875l0 -7.328125l-1.203125 0l0 -1.15625l1.203125 0l0 -1.015625q0 -1.046875 0.265625 -1.640625q0.28125 -0.609375 0.890625 -1.0q0.609375 -0.390625 1.609375 -0.390625q0.78125 0 1.765625 0.25l0 1.21875q-1.046875 -0.3125 -1.671875 -0.3125q-0.359375 0 -0.65625 0.109375q-0.296875 0.109375 -0.484375 0.40625q-0.171875 0.28125 -0.171875 1.1875l0 1.1875l2.125 0l0 1.15625l-2.125 0l0 7.328125l-1.546875 0zm8.9765625 0.203125q-1.21875 0 -2.109375 -0.5q-0.890625 -0.5 -1.421875 -1.5625q-0.515625 -1.078125 -0.515625 -2.390625q0 -1.234375 0.46875 -2.28125q0.484375 -1.0625 1.390625 -1.59375q0.90625 -0.546875 2.1875 -0.546875q1.203125 0 2.09375 0.5q0.90625 0.484375 1.421875 1.5625q0.53125 1.0625 0.53125 2.359375q0 1.25 -0.484375 2.3125q-0.484375 1.0625 -1.390625 1.609375q-0.90625 0.53125 -2.171875 0.53125zm0 -1.171875q1.140625 0 1.765625 -0.84375q0.640625 -0.859375 0.640625 -2.4375q0 -1.578125 -0.640625 -2.421875q-0.625 -0.84375 -1.765625 -0.84375q-1.140625 0 -1.78125 0.84375q-0.625 0.84375 -0.625 2.421875q0 1.578125 0.625 2.4375q0.640625 0.84375 1.78125 0.84375zm6.453125 0.96875l0 -8.484375l1.53125 0l0 1.59375q0.4375 -0.859375 1.140625 -1.3125q0.703125 -0.46875 1.515625 -0.46875q0.234375 0 0.5 0.03125l0 1.4375q-0.390625 -0.125 -0.703125 -0.125q-0.734375 0 -1.34375 0.4375q-0.609375 0.421875 -1.109375 1.296875l0 5.59375l-1.53125 0zm6.546875 0l0 -8.484375l1.53125 0l0 1.59375q0.46875 -0.75 1.203125 -1.265625q0.734375 -0.515625 1.6875 -0.515625q0.5625 0 0.96875 0.1875q0.421875 0.171875 0.75 0.5q0.34375 0.328125 0.609375 1.09375q0.46875 -0.765625 1.1875 -1.28125q0.71875 -0.515625 1.65625 -0.515625q0.90625 0 1.625 0.5625q0.734375 0.5625 0.734375 1.953125l0 6.171875l-1.546875 0l0 -5.9375q0 -0.84375 -0.359375 -1.140625q-0.359375 -0.3125 -0.796875 -0.3125q-0.546875 0 -1.140625 0.34375q-0.578125 0.34375 -1.359375 1.359375l0 5.6875l-1.546875 0l0 -5.9375q0 -0.84375 -0.359375 -1.140625q-0.359375 -0.3125 -0.8125 -0.3125q-0.5625 0 -1.125 0.34375q-0.5625 0.328125 -1.375 1.359375l0 5.6875l-1.53125 0zm14.0625 1.15625l0 -1.15625l6.65625 0l0 1.15625l-6.65625 0zm10.625 -1.15625l-3.15625 -8.484375l1.546875 0l2.46875 6.59375l2.59375 -6.59375l1.4375 0l-3.34375 8.484375l-1.546875 0zm6.5312653 0l0 -8.484375l1.53125 0l0 8.484375l-1.53125 0zm0 -10.03125l0 -1.53125l1.53125 0l0 1.53125l-1.53125 0zm10.84375 9.75q-1.546875 0.484375 -2.65625 0.484375q-1.96875 0 -3.109375 -1.328125q-1.125 -1.34375 -1.125 -3.15625q0 -1.203125 0.5 -2.28125q0.5 -1.078125 1.296875 -1.59375q0.8125 -0.53125 1.90625 -0.53125q1.46875 0 2.34375 1.0625q0.875 1.046875 0.875 3.15625l0 0.46875l-5.359375 0q0.125 1.125 0.484375 1.734375q0.359375 0.609375 0.953125 0.953125q0.609375 0.328125 1.53125 0.328125q0.46875 0 0.921875 -0.078125q0.46875 -0.078125 1.4375 -0.4375l0 1.21875zm-5.25 -4.875l3.734375 0q0 -1.28125 -0.5 -1.828125q-0.484375 -0.546875 -1.265625 -0.546875q-0.875 0 -1.375 0.59375q-0.5 0.59375 -0.59375 1.78125zm8.9296875 5.15625l-2.4375 -8.484375l1.515625 0l1.859375 6.5625l2.0 -6.5625l1.546875 0l1.75 6.5625l2.140625 -6.5625l1.3125 0l-2.765625 8.484375l-1.546875 0l-1.796875 -6.578125l-2.03125 6.578125l-1.546875 0z" fill-rule="nonzero"/><path fill="#cfe2f3" d="m243.46457 97.62992l186.70865 0l0 42.015755l-186.70865 0z" fill-rule="evenodd"/><path stroke="#000000" stroke-width="2.0" stroke-linejoin="round" stroke-linecap="butt" d="m243.46457 97.62992l186.70865 0l0 42.015755l-186.70865 0z" fill-rule="evenodd"/><path fill="#000000" d="m299.28375 124.497795l0 -7.328125l-1.203125 0l0 -1.15625l1.203125 0l0 -1.015625q0 -1.046875 0.265625 -1.640625q0.28125 -0.609375 0.890625 -1.0q0.609375 -0.390625 1.609375 -0.390625q0.78125 0 1.765625 0.25l0 1.21875q-1.046875 -0.3125 -1.671875 -0.3125q-0.359375 0 -0.65625 0.109375q-0.296875 0.109375 -0.484375 0.40625q-0.171875 0.28125 -0.171875 1.1875l0 1.1875l2.125 0l0 1.15625l-2.125 0l0 7.328125l-1.546875 0zm5.6015625 0l0 -8.484375l1.53125 0l0 8.484375l-1.53125 0zm0 -10.03125l0 -1.53125l1.53125 0l0 1.53125l-1.53125 0zm4.625 10.03125l0 -12.34375l1.53125 0l0 12.34375l-1.53125 0zm8.40625 0q-0.71875 0.203125 -1.234375 0.203125q-1.140625 0 -1.8125 -0.65625q-0.671875 -0.671875 -0.671875 -1.890625l0 -4.984375l-1.0625 0l0 -1.15625l1.0625 0l0 -1.546875l1.53125 -0.140625l0 1.6875l2.21875 0l0 1.15625l-2.21875 0l0 4.703125q0 0.890625 0.34375 1.28125q0.34375 0.375 1.09375 0.375q0.3125 0 0.75 -0.09375l0 1.0625zm8.421875 -0.28125q-1.546875 0.484375 -2.65625 0.484375q-1.96875 0 -3.109375 -1.328125q-1.125 -1.34375 -1.125 -3.15625q0 -1.203125 0.5 -2.28125q0.5 -1.078125 1.296875 -1.59375q0.8125 -0.53125 1.90625 -0.53125q1.46875 0 2.34375 1.0625q0.875 1.046875 0.875 3.15625l0 0.46875l-5.359375 0q0.125 1.125 0.484375 1.734375q0.359375 0.609375 0.953125 0.953125q0.609375 0.328125 1.53125 0.328125q0.46875 0 0.921875 -0.078125q0.46875 -0.078125 1.4375 -0.4375l0 1.21875zm-5.25 -4.875l3.734375 0q0 -1.28125 -0.5 -1.828125q-0.484375 -0.546875 -1.265625 -0.546875q-0.875 0 -1.375 0.59375q-0.5 0.59375 -0.59375 1.78125zm7.9453125 5.15625l0 -8.484375l1.53125 0l0 1.59375q0.4375 -0.859375 1.140625 -1.3125q0.703125 -0.46875 1.515625 -0.46875q0.234375 0 0.5 0.03125l0 1.4375q-0.390625 -0.125 -0.703125 -0.125q-0.734375 0 -1.34375 0.4375q-0.609375 0.421875 -1.109375 1.296875l0 5.59375l-1.53125 0zm5.671875 1.15625l0 -1.15625l6.65625 0l0 1.15625l-6.65625 0zm10.625 -1.15625l-3.15625 -8.484375l1.546875 0l2.46875 6.59375l2.59375 -6.59375l1.4375 0l-3.34375 8.484375l-1.546875 0zm6.53125 0l0 -8.484375l1.53125 0l0 8.484375l-1.53125 0zm0 -10.03125l0 -1.53125l1.53125 0l0 1.53125l-1.53125 0zm10.84375 9.75q-1.546875 0.484375 -2.65625 0.484375q-1.96875 0 -3.109375 -1.328125q-1.125 -1.34375 -1.125 -3.15625q0 -1.203125 0.5 -2.28125q0.5 -1.078125 1.296875 -1.59375q0.8125 -0.53125 1.90625 -0.53125q1.46875 0 2.34375 1.0625q0.875 1.046875 0.875 3.15625l0 0.46875l-5.359375 0q0.125 1.125 0.484375 1.734375q0.359375 0.609375 0.953125 0.953125q0.609375 0.328125 1.53125 0.328125q0.46875 0 0.921875 -0.078125q0.46875 -0.078125 1.4375 -0.4375l0 1.21875zm-5.25 -4.875l3.734375 0q0 -1.28125 -0.5 -1.828125q-0.484375 -0.546875 -1.265625 -0.546875q-0.875 0 -1.375 0.59375q-0.5 0.59375 -0.59375 1.78125zm8.9296875 5.15625l-2.4375 -8.484375l1.515625 0l1.859375 6.5625l2.0 -6.5625l1.546875 0l1.75 6.5625l2.140625 -6.5625l1.3125 0l-2.765625 8.484375l-1.546875 0l-1.796875 -6.578125l-2.03125 6.578125l-1.546875 0z" fill-rule="nonzero"/><path fill="#cfe2f3" d="m472.76117 97.62992l186.70862 0l0 42.015755l-186.70862 0z" fill-rule="evenodd"/><path stroke="#000000" stroke-width="2.0" stroke-linejoin="round" stroke-linecap="butt" d="m472.76117 97.62992l186.70862 0l0 42.015755l-186.70862 0z" fill-rule="evenodd"/><path fill="#000000" d="m534.71704 124.497795l0 -8.484375l1.53125 0l0 1.59375q0.4375 -0.859375 1.140625 -1.3125q0.703125 -0.46875 1.515625 -0.46875q0.234375 0 0.5 0.03125l0 1.4375q-0.390625 -0.125 -0.703125 -0.125q-0.734375 0 -1.34375 0.4375q-0.609375 0.421875 -1.109375 1.296875l0 5.59375l-1.53125 0zm12.765625 -0.28125q-1.546875 0.484375 -2.65625 0.484375q-1.96875 0 -3.109375 -1.328125q-1.125 -1.34375 -1.125 -3.15625q0 -1.203125 0.5 -2.28125q0.5 -1.078125 1.296875 -1.59375q0.8125 -0.53125 1.90625 -0.53125q1.46875 0 2.34375 1.0625q0.875 1.046875 0.875 3.15625l0 0.46875l-5.359375 0q0.125 1.125 0.484375 1.734375q0.359375 0.609375 0.953125 0.953125q0.609375 0.328125 1.53125 0.328125q0.46875 0 0.921875 -0.078125q0.46875 -0.078125 1.4375 -0.4375l0 1.21875zm-5.25 -4.875l3.734375 0q0 -1.28125 -0.5 -1.828125q-0.484375 -0.546875 -1.265625 -0.546875q-0.875 0 -1.375 0.59375q-0.5 0.59375 -0.59375 1.78125zm9.6953125 5.15625l-3.15625 -8.484375l1.546875 0l2.46875 6.59375l2.59375 -6.59375l1.4375 0l-3.34375 8.484375l-1.546875 0zm5.65625 1.15625l0 -1.15625l6.65625 0l0 1.15625l-6.65625 0zm10.625 -1.15625l-3.15625 -8.484375l1.546875 0l2.46875 6.59375l2.59375 -6.59375l1.4375 0l-3.34375 8.484375l-1.546875 0zm6.53125 0l0 -8.484375l1.53125 0l0 8.484375l-1.53125 0zm0 -10.03125l0 -1.53125l1.53125 0l0 1.53125l-1.53125 0zm10.84375 9.75q-1.546875 0.484375 -2.65625 0.484375q-1.96875 0 -3.109375 -1.328125q-1.125 -1.34375 -1.125 -3.15625q0 -1.203125 0.5 -2.28125q0.5 -1.078125 1.296875 -1.59375q0.8125 -0.53125 1.90625 -0.53125q1.46875 0 2.34375 1.0625q0.875 1.046875 0.875 3.15625l0 0.46875l-5.359375 0q0.125 1.125 0.484375 1.734375q0.359375 0.609375 0.953125 0.953125q0.609375 0.328125 1.53125 0.328125q0.46875 0 0.921875 -0.078125q0.46875 -0.078125 1.4375 -0.4375l0 1.21875zm-5.25 -4.875l3.734375 0q0 -1.28125 -0.5 -1.828125q-0.484375 -0.546875 -1.265625 -0.546875q-0.875 0 -1.375 0.59375q-0.5 0.59375 -0.59375 1.78125zm8.9296875 5.15625l-2.4375 -8.484375l1.515625 0l1.859375 6.5625l2.0 -6.5625l1.546875 0l1.75 6.5625l2.140625 -6.5625l1.3125 0l-2.765625 8.484375l-1.546875 0l-1.796875 -6.578125l-2.03125 6.578125l-1.546875 0z" fill-rule="nonzero"/><path fill="#cfe2f3" d="m702.05774 97.62992l186.70868 0l0 42.015755l-186.70868 0z" fill-rule="evenodd"/><path stroke="#000000" stroke-width="2.0" stroke-linejoin="round" stroke-linecap="butt" d="m702.05774 97.62992l186.70868 0l0 42.015755l-186.70868 0z" fill-rule="evenodd"/><path fill="#000000" d="m715.7714 124.20092l0 -1.421875q1.5 0.75 2.625 0.75q0.65625 0 1.09375 -0.359375q0.4375 -0.359375 0.4375 -0.890625q0 -0.34375 -0.21875 -0.65625q-0.21875 -0.328125 -1.0 -0.65625l-0.90625 -0.375q-1.03125 -0.4375 -1.515625 -1.0q-0.46875 -0.5625 -0.46875 -1.390625q0 -1.015625 0.734375 -1.6875q0.75 -0.6875 2.203125 -0.6875q0.703125 0 1.75 0.1875l0.328125 0.0625l0 1.28125q-1.296875 -0.375 -2.0625 -0.375q-0.734375 0 -1.109375 0.328125q-0.359375 0.3125 -0.359375 0.75q0 0.34375 0.25 0.609375q0.234375 0.28125 0.875 0.5625l0.734375 0.3125q1.5 0.625 1.90625 1.25q0.40625 0.609375 0.40625 1.34375q0 0.6875 -0.390625 1.28125q-0.375 0.59375 -1.109375 0.9375q-0.734375 0.34375 -1.640625 0.34375q-1.0625 0 -2.5625 -0.5zm12.25 0.296875q-0.71875 0.203125 -1.234375 0.203125q-1.140625 0 -1.8125 -0.65625q-0.671875 -0.671875 -0.671875 -1.890625l0 -4.984375l-1.0625 0l0 -1.15625l1.0625 0l0 -1.546875l1.53125 -0.140625l0 1.6875l2.21875 0l0 1.15625l-2.21875 0l0 4.703125q0 0.890625 0.34375 1.28125q0.34375 0.375 1.09375 0.375q0.3125 0 0.75 -0.09375l0 1.0625zm7.640625 0l0 -1.59375q-0.46875 0.890625 -1.171875 1.34375q-0.703125 0.453125 -1.65625 0.453125q-1.5625 0 -2.421875 -1.15625q-0.859375 -1.15625 -0.859375 -3.03125q0 -2.015625 0.96875 -3.34375q0.96875 -1.34375 2.640625 -1.34375q0.5 0 0.9375 0.125q0.453125 0.109375 0.796875 0.328125q0.34375 0.203125 0.765625 0.703125l0 -4.828125l1.546875 0l0 12.34375l-1.546875 0zm0 -6.46875q-0.796875 -0.703125 -1.265625 -0.875q-0.453125 -0.171875 -1.0 -0.171875q-1.125 0 -1.671875 0.953125q-0.53125 0.9375 -0.53125 2.421875q0 1.390625 0.46875 2.1875q0.484375 0.796875 1.5 0.796875q0.640625 0 1.265625 -0.34375q0.625 -0.359375 1.234375 -1.0625l0 -3.90625zm4.8515625 6.46875l0 -1.546875l1.53125 0l0 1.546875l-1.53125 0zm0 -6.9375l0 -1.546875l1.53125 0l0 1.546875l-1.53125 0zm5.0625 6.9375l0 -1.546875l1.53125 0l0 1.546875l-1.53125 0zm0 -6.9375l0 -1.546875l1.53125 0l0 1.546875l-1.53125 0zm6.59375 6.9375l-3.15625 -8.484375l1.546875 0l2.46875 6.59375l2.59375 -6.59375l1.4375 0l-3.34375 8.484375l-1.546875 0zm12.75 -0.28125q-1.546875 0.484375 -2.65625 0.484375q-1.96875 0 -3.109375 -1.328125q-1.125 -1.34375 -1.125 -3.15625q0 -1.203125 0.5 -2.28125q0.5 -1.078125 1.296875 -1.59375q0.8125 -0.53125 1.90625 -0.53125q1.46875 0 2.34375 1.0625q0.875 1.046875 0.875 3.15625l0 0.46875l-5.359375 0q0.125 1.125 0.484375 1.734375q0.359375 0.609375 0.953125 0.953125q0.609375 0.328125 1.53125 0.328125q0.46875 0 0.921875 -0.078125q0.46875 -0.078125 1.4375 -0.4375l0 1.21875zm-5.25 -4.875l3.734375 0q0 -1.28125 -0.5 -1.828125q-0.484375 -0.546875 -1.265625 -0.546875q-0.875 0 -1.375 0.59375q-0.5 0.59375 -0.59375 1.78125zm13.8359375 4.890625q-1.5 0.46875 -2.578125 0.46875q-1.140625 0 -2.09375 -0.609375q-0.9375 -0.625 -1.421875 -1.625q-0.46875 -1.0 -0.46875 -2.265625q0 -1.875 1.03125 -3.125q1.046875 -1.25 3.21875 -1.25q1.0 0 2.21875 0.265625l0 1.296875q-1.3125 -0.390625 -2.125 -0.390625q-1.296875 0 -1.953125 0.96875q-0.65625 0.96875 -0.65625 2.28125q0 1.4375 0.734375 2.328125q0.734375 0.875 1.921875 0.875q1.046875 0 2.171875 -0.546875l0 1.328125zm6.0859375 0.265625q-0.71875 0.203125 -1.234375 0.203125q-1.140625 0 -1.8125 -0.65625q-0.671875 -0.671875 -0.671875 -1.890625l0 -4.984375l-1.0625 0l0 -1.15625l1.0625 0l0 -1.546875l1.53125 -0.140625l0 1.6875l2.21875 0l0 1.15625l-2.21875 0l0 4.703125q0 0.890625 0.34375 1.28125q0.34375 0.375 1.09375 0.375q0.3125 0 0.75 -0.09375l0 1.0625zm5.578125 0.203125q-1.21875 0 -2.109375 -0.5q-0.890625 -0.5 -1.421875 -1.5625q-0.515625 -1.078125 -0.515625 -2.390625q0 -1.234375 0.46875 -2.28125q0.484375 -1.0625 1.390625 -1.59375q0.90625 -0.546875 2.1875 -0.546875q1.203125 0 2.09375 0.5q0.90625 0.484375 1.421875 1.5625q0.53125 1.0625 0.53125 2.359375q0 1.25 -0.484375 2.3125q-0.484375 1.0625 -1.390625 1.609375q-0.90625 0.53125 -2.171875 0.53125zm0 -1.171875q1.140625 0 1.765625 -0.84375q0.640625 -0.859375 0.640625 -2.4375q0 -1.578125 -0.640625 -2.421875q-0.625 -0.84375 -1.765625 -0.84375q-1.140625 0 -1.78125 0.84375q-0.625 0.84375 -0.625 2.421875q0 1.578125 0.625 2.4375q0.640625 0.84375 1.78125 0.84375zm6.453125 0.96875l0 -8.484375l1.53125 0l0 1.59375q0.4375 -0.859375 1.140625 -1.3125q0.703125 -0.46875 1.515625 -0.46875q0.234375 0 0.5 0.03125l0 1.4375q-0.390625 -0.125 -0.703125 -0.125q-0.734375 0 -1.34375 0.4375q-0.609375 0.421875 -1.109375 1.296875l0 5.59375l-1.53125 0zm14.3125 -0.390625l-8.484375 -4.234375l8.484375 -4.25l0 1.359375l-5.90625 2.890625l5.90625 2.890625l0 1.34375zm1.5859375 0.171875l0 -1.625q1.390625 0.640625 2.03125 0.78125q0.640625 0.125 1.1875 0.125q1.0 0 1.5625 -0.546875q0.578125 -0.546875 0.578125 -1.296875q0 -0.578125 -0.296875 -1.0625q-0.296875 -0.46875 -1.515625 -1.15625l-0.796875 -0.46875q-1.59375 -0.90625 -2.140625 -1.65625q-0.546875 -0.75 -0.546875 -1.65625q0 -0.828125 0.4375 -1.546875q0.4375 -0.71875 1.15625 -1.125q0.734375 -0.40625 1.84375 -0.40625q1.34375 0 2.828125 0.453125l0 1.5q-1.296875 -0.515625 -1.78125 -0.609375q-0.46875 -0.109375 -0.953125 -0.109375q-1.0 0 -1.484375 0.53125q-0.46875 0.515625 -0.46875 1.0625q0 0.375 0.21875 0.765625q0.234375 0.375 0.609375 0.65625q0.390625 0.28125 1.0625 0.65625l0.828125 0.46875q1.609375 0.921875 2.140625 1.671875q0.546875 0.765625 0.546875 1.765625q0 1.34375 -1.03125 2.34375q-1.03125 1.0 -3.03125 1.0q-0.609375 0 -1.1875 -0.09375q-0.578125 -0.078125 -1.796875 -0.421875zm13.1640625 0.21875q-0.71875 0.203125 -1.234375 0.203125q-1.140625 0 -1.8125 -0.65625q-0.671875 -0.671875 -0.671875 -1.890625l0 -4.984375l-1.0625 0l0 -1.15625l1.0625 0l0 -1.546875l1.53125 -0.140625l0 1.6875l2.21875 0l0 1.15625l-2.21875 0l0 4.703125q0 0.890625 0.34375 1.28125q0.34375 0.375 1.09375 0.375q0.3125 0 0.75 -0.09375l0 1.0625zm7.5 0l0 -1.59375q-0.59375 0.859375 -1.375 1.328125q-0.765625 0.46875 -1.59375 0.46875q-1.078125 0 -1.75 -0.6875q-0.671875 -0.6875 -0.671875 -1.90625l0 -6.09375l1.53125 0l0 5.59375q0 0.875 0.15625 1.15625q0.15625 0.28125 0.4375 0.4375q0.28125 0.15625 0.609375 0.15625q0.5625 0 1.21875 -0.34375q0.671875 -0.359375 1.4375 -1.5l0 -5.5l1.546875 0l0 8.484375l-1.546875 0zm10.070374 0l0 -1.59375q-0.46875 0.890625 -1.171875 1.34375q-0.703125 0.453125 -1.65625 0.453125q-1.5625 0 -2.421875 -1.15625q-0.859375 -1.15625 -0.859375 -3.03125q0 -2.015625 0.96875 -3.34375q0.96875 -1.34375 2.640625 -1.34375q0.5 0 0.9375 0.125q0.453125 0.109375 0.796875 0.328125q0.34375 0.203125 0.765625 0.703125l0 -4.828125l1.546875 0l0 12.34375l-1.546875 0zm0 -6.46875q-0.796875 -0.703125 -1.265625 -0.875q-0.453125 -0.171875 -1.0 -0.171875q-1.125 0 -1.671875 0.953125q-0.53125 0.9375 -0.53125 2.421875q0 1.390625 0.46875 2.1875q0.484375 0.796875 1.5 0.796875q0.640625 0 1.265625 -0.34375q0.625 -0.359375 1.234375 -1.0625l0 -3.90625zm10.8515625 6.1875q-1.546875 0.484375 -2.65625 0.484375q-1.96875 0 -3.109375 -1.328125q-1.125 -1.34375 -1.125 -3.15625q0 -1.203125 0.5 -2.28125q0.5 -1.078125 1.296875 -1.59375q0.8125 -0.53125 1.90625 -0.53125q1.46875 0 2.34375 1.0625q0.875 1.046875 0.875 3.15625l0 0.46875l-5.359375 0q0.125 1.125 0.484375 1.734375q0.359375 0.609375 0.953125 0.953125q0.609375 0.328125 1.53125 0.328125q0.46875 0 0.921875 -0.078125q0.46875 -0.078125 1.4375 -0.4375l0 1.21875zm-5.25 -4.875l3.734375 0q0 -1.28125 -0.5 -1.828125q-0.484375 -0.546875 -1.265625 -0.546875q-0.875 0 -1.375 0.59375q-0.5 0.59375 -0.59375 1.78125zm7.9453125 5.15625l0 -8.484375l1.53125 0l0 1.59375q0.59375 -0.859375 1.359375 -1.3125q0.78125 -0.46875 1.625 -0.46875q1.078125 0 1.75 0.6875q0.671875 0.671875 0.671875 1.890625l0 6.09375l-1.546875 0l0 -5.59375q0 -0.890625 -0.15625 -1.171875q-0.15625 -0.28125 -0.4375 -0.421875q-0.28125 -0.15625 -0.59375 -0.15625q-0.578125 0 -1.234375 0.359375q-0.65625 0.34375 -1.4375 1.484375l0 5.5l-1.53125 0zm13.7109375 0q-0.71875 0.203125 -1.234375 0.203125q-1.140625 0 -1.8125 -0.65625q-0.671875 -0.671875 -0.671875 -1.890625l0 -4.984375l-1.0625 0l0 -1.15625l1.0625 0l0 -1.546875l1.53125 -0.140625l0 1.6875l2.21875 0l0 1.15625l-2.21875 0l0 4.703125q0 0.890625 0.34375 1.28125q0.34375 0.375 1.09375 0.375q0.3125 0 0.75 -0.09375l0 1.0625zm1.484375 -8.875l8.484375 4.25l-8.484375 4.234375l0 -1.34375l5.890625 -2.890625l-5.890625 -2.890625l0 -1.359375z" fill-rule="nonzero"/><path fill="#cfe2f3" d="m14.167979 15.083989l186.70866 0l0 42.01575l-186.70866 0z" fill-rule="evenodd"/><path stroke="#000000" stroke-width="2.0" stroke-linejoin="round" stroke-linecap="butt" d="m14.167979 15.083989l186.70866 0l0 42.01575l-186.70866 0z" fill-rule="evenodd"/><path fill="#000000" d="m39.686375 41.654987l0 -1.421875q1.5 0.75 2.625 0.75q0.65625 0 1.09375 -0.359375q0.4375 -0.359375 0.4375 -0.890625q0 -0.34375 -0.21875 -0.65625q-0.21875 -0.328125 -1.0 -0.65625l-0.90625 -0.375q-1.03125 -0.4375 -1.515625 -1.0q-0.46875 -0.5625 -0.46875 -1.390625q0 -1.015625 0.734375 -1.6875q0.75 -0.6875 2.203125 -0.6875q0.703125 0 1.75 0.1875l0.328125 0.0625l0 1.28125q-1.296875 -0.375 -2.0625 -0.375q-0.734375 0 -1.109375 0.328125q-0.359375 0.3125 -0.359375 0.75q0 0.34375 0.25 0.609375q0.234375 0.28125 0.875 0.5625l0.734375 0.3125q1.5 0.625 1.90625 1.25q0.40625 0.609375 0.40625 1.34375q0 0.6875 -0.390625 1.28125q-0.375 0.59375 -1.109375 0.9375q-0.734375 0.34375 -1.640625 0.34375q-1.0625 0 -2.5625 -0.5zm12.25 0.296875q-0.71875 0.203125 -1.234375 0.203125q-1.140625 0 -1.8125 -0.65625q-0.671875 -0.671875 -0.671875 -1.890625l0 -4.984375l-1.0625 0l0 -1.15625l1.0625 0l0 -1.5468731l1.53125 -0.140625l0 1.6874981l2.21875 0l0 1.15625l-2.21875 0l0 4.703125q0 0.890625 0.34375 1.28125q0.34375 0.375 1.09375 0.375q0.3125 0 0.75 -0.09375l0 1.0625zm7.640625 0l0 -1.59375q-0.46875 0.890625 -1.171875 1.34375q-0.703125 0.453125 -1.65625 0.453125q-1.5625 0 -2.421875 -1.15625q-0.859375 -1.15625 -0.859375 -3.03125q0 -2.015625 0.96875 -3.34375q0.96875 -1.34375 2.640625 -1.34375q0.5 0 0.9375 0.125q0.453125 0.109375 0.796875 0.328125q0.34375 0.203125 0.765625 0.703125l0 -4.828123l1.546875 0l0 12.343748l-1.546875 0zm0 -6.46875q-0.796875 -0.703125 -1.265625 -0.875q-0.453125 -0.171875 -1.0 -0.171875q-1.125 0 -1.671875 0.953125q-0.53125 0.9375 -0.53125 2.421875q0 1.390625 0.46875 2.1875q0.484375 0.796875 1.5 0.796875q0.640625 0 1.265625 -0.34375q0.625 -0.359375 1.234375 -1.0625l0 -3.90625zm4.8515587 6.46875l0 -1.546875l1.53125 0l0 1.546875l-1.53125 0zm0 -6.9375l0 -1.546875l1.53125 0l0 1.546875l-1.53125 0zm5.0625 6.9375l0 -1.546875l1.53125 0l0 1.546875l-1.53125 0zm0 -6.9375l0 -1.546875l1.53125 0l0 1.546875l-1.53125 0zm4.84375 6.9375l0 -8.484375l1.53125 0l0 1.59375q0.46875 -0.75 1.203125 -1.265625q0.734375 -0.515625 1.6875 -0.515625q0.5625 0 0.96875 0.1875q0.421875 0.171875 0.75 0.5q0.34375 0.328125 0.609375 1.09375q0.46875 -0.765625 1.1875 -1.28125q0.71875 -0.515625 1.65625 -0.515625q0.90625 0 1.625 0.5625q0.734375 0.5625 0.734375 1.953125l0 6.171875l-1.546875 0l0 -5.9375q0 -0.84375 -0.359375 -1.140625q-0.359375 -0.3125 -0.796875 -0.3125q-0.546875 0 -1.140625 0.34375q-0.578125 0.34375 -1.359375 1.359375l0 5.6875l-1.546875 0l0 -5.9375q0 -0.84375 -0.359375 -1.140625q-0.359375 -0.3125 -0.8125 -0.3125q-0.5625 0 -1.125 0.34375q-0.5625 0.328125 -1.375 1.359375l0 5.6875l-1.53125 0zm19.3125 -1.078125q-0.6875 0.625 -1.359375 0.953125q-0.671875 0.328125 -1.3125 0.328125q-0.890625 0 -1.671875 -0.59375q-0.765625 -0.609375 -0.765625 -1.75q0 -1.25 1.078125 -2.0625q1.078125 -0.8125 3.4375 -0.8125l0.359375 0l0 -1.03125q0 -0.609375 -0.171875 -0.875q-0.15625 -0.28125 -0.5 -0.4375q-0.34375 -0.15625 -0.859375 -0.15625q-1.203125 0 -2.609375 0.75l0 -1.28125q1.546875 -0.625 2.921875 -0.625q0.75 0 1.375 0.234375q0.640625 0.234375 1.015625 0.75q0.375 0.515625 0.375 1.640625l0 3.84375q0 0.640625 0.09375 0.875q0.109375 0.21875 0.28125 0.34375q0.1875 0.109375 0.4375 0.109375q0.09375 0 0.296875 -0.03125l0.109375 0.84375q-0.53125 0.265625 -1.15625 0.265625q-0.421875 0 -0.8125 -0.28125q-0.390625 -0.28125 -0.5625 -1.0zm-0.234375 -0.84375l0 -2.1875l-0.484375 -0.015625q-1.21875 0 -2.046875 0.46875q-0.8125 0.46875 -0.8125 1.265625q0 0.5625 0.40625 0.953125q0.40625 0.375 0.9375 0.375q0.484375 0 0.984375 -0.21875q0.5 -0.21875 1.015625 -0.640625zm3.8359375 1.921875l3.234375 -4.390625l-3.140625 -4.09375l1.828125 0l2.484375 3.265625l2.234375 -3.265625l1.5 0l-2.9375 4.296875l3.203125 4.1875l-1.828125 0l-2.5625 -3.359375l-2.46875 3.359375l-1.546875 0zm9.796875 1.15625l0 -1.15625l6.65625 0l0 1.15625l-6.65625 0zm15.09375 -1.4375q-1.546875 0.484375 -2.65625 0.484375q-1.96875 0 -3.109375 -1.328125q-1.125 -1.34375 -1.125 -3.15625q0 -1.203125 0.5 -2.28125q0.5 -1.078125 1.296875 -1.59375q0.8125 -0.53125 1.90625 -0.53125q1.46875 0 2.34375 1.0625q0.875 1.046875 0.875 3.15625l0 0.46875l-5.359375 0q0.125 1.125 0.484375 1.734375q0.359375 0.609375 0.953125 0.953125q0.609375 0.328125 1.53125 0.328125q0.46875 0 0.921875 -0.078125q0.46875 -0.078125 1.4375 -0.4375l0 1.21875zm-5.25 -4.875l3.734375 0q0 -1.28125 -0.5 -1.828125q-0.484375 -0.546875 -1.265625 -0.546875q-0.875 0 -1.375 0.59375q-0.5 0.59375 -0.59375 1.78125zm7.9453125 5.15625l0 -12.343748l1.53125 0l0 12.343748l-1.53125 0zm10.84375 -0.28125q-1.546875 0.484375 -2.65625 0.484375q-1.96875 0 -3.109375 -1.328125q-1.125 -1.34375 -1.125 -3.15625q0 -1.203125 0.5 -2.28125q0.5 -1.078125 1.296875 -1.59375q0.8125 -0.53125 1.90625 -0.53125q1.46875 0 2.34375 1.0625q0.875 1.046875 0.875 3.15625l0 0.46875l-5.359375 0q0.125 1.125 0.484375 1.734375q0.359375 0.609375 0.953125 0.953125q0.609375 0.328125 1.53125 0.328125q0.46875 0 0.921875 -0.078125q0.46875 -0.078125 1.4375 -0.4375l0 1.21875zm-5.25 -4.875l3.734375 0q0 -1.28125 -0.5 -1.828125q-0.484375 -0.546875 -1.265625 -0.546875q-0.875 0 -1.375 0.59375q-0.5 0.59375 -0.59375 1.78125zm7.9453125 5.15625l0 -8.484375l1.53125 0l0 1.59375q0.46875 -0.75 1.203125 -1.265625q0.734375 -0.515625 1.6875153 -0.515625q0.5625 0 0.96875 0.1875q0.421875 0.171875 0.75 0.5q0.34375 0.328125 0.609375 1.09375q0.46875 -0.765625 1.1875 -1.28125q0.71875 -0.515625 1.65625 -0.515625q0.90625 0 1.625 0.5625q0.734375 0.5625 0.734375 1.953125l0 6.171875l-1.546875 0l0 -5.9375q0 -0.84375 -0.359375 -1.140625q-0.359375 -0.3125 -0.796875 -0.3125q-0.546875 0 -1.140625 0.34375q-0.578125 0.34375 -1.359375 1.359375l0 5.6875l-1.546875 0l0 -5.9375q0 -0.84375 -0.359375 -1.140625q-0.359375 -0.3125 -0.8125 -0.3125q-0.56251526 0 -1.1250153 0.34375q-0.5625 0.328125 -1.375 1.359375l0 5.6875l-1.53125 0zm21.156265 -0.28125q-1.546875 0.484375 -2.65625 0.484375q-1.96875 0 -3.109375 -1.328125q-1.125 -1.34375 -1.125 -3.15625q0 -1.203125 0.5 -2.28125q0.5 -1.078125 1.296875 -1.59375q0.8125 -0.53125 1.90625 -0.53125q1.46875 0 2.34375 1.0625q0.875 1.046875 0.875 3.15625l0 0.46875l-5.359375 0q0.125 1.125 0.484375 1.734375q0.359375 0.609375 0.953125 0.953125q0.609375 0.328125 1.53125 0.328125q0.46875 0 0.921875 -0.078125q0.46875 -0.078125 1.4375 -0.4375l0 1.21875zm-5.25 -4.875l3.734375 0q0 -1.28125 -0.5 -1.828125q-0.484375 -0.546875 -1.265625 -0.546875q-0.875 0 -1.375 0.59375q-0.5 0.59375 -0.59375 1.78125zm7.9453125 5.15625l0 -8.484375l1.53125 0l0 1.59375q0.59375 -0.859375 1.359375 -1.3125q0.78125 -0.46875 1.625 -0.46875q1.078125 0 1.75 0.6875q0.671875 0.671875 0.671875 1.890625l0 6.09375l-1.546875 0l0 -5.59375q0 -0.890625 -0.15625 -1.171875q-0.15625 -0.28125 -0.4375 -0.421875q-0.28125 -0.15625 -0.59375 -0.15625q-0.578125 0 -1.234375 0.359375q-0.65625 0.34375 -1.4375 1.484375l0 5.5l-1.53125 0zm13.7109375 0q-0.71875 0.203125 -1.234375 0.203125q-1.140625 0 -1.8125 -0.65625q-0.671875 -0.671875 -0.671875 -1.890625l0 -4.984375l-1.0625 0l0 -1.15625l1.0625 0l0 -1.5468731l1.53125 -0.140625l0 1.6874981l2.21875 0l0 1.15625l-2.21875 0l0 4.703125q0 0.890625 0.34375 1.28125q0.34375 0.375 1.09375 0.375q0.3125 0 0.75 -0.09375l0 1.0625z" fill-rule="nonzero"/><path fill="#000000" fill-opacity="0.0" d="m14.167979 139.64568l186.70866 0l0 42.015747l-186.70866 0z" fill-rule="evenodd"/><path stroke="#000000" stroke-width="2.0" stroke-linejoin="round" stroke-linecap="butt" d="m14.167979 139.64568l186.70866 0l0 42.015747l-186.70866 0z" fill-rule="evenodd"/><path fill="#000000" d="m69.32976 167.57355l0 -13.359375l1.765625 0l0 13.359375l-1.765625 0zm8.261429 -1.46875l0.234375 1.453125q-0.6875 0.140625 -1.234375 0.140625q-0.890625 0 -1.390625 -0.28125q-0.484375 -0.28125 -0.6875 -0.734375q-0.203125 -0.46875 -0.203125 -1.9375l0 -5.578125l-1.203125 0l0 -1.265625l1.203125 0l0 -2.390625l1.625 -0.984375l0 3.375l1.65625 0l0 1.265625l-1.65625 0l0 5.671875q0 0.6875 0.078125 0.890625q0.09375 0.203125 0.28125 0.328125q0.203125 0.109375 0.578125 0.109375q0.265625 0 0.71875 -0.0625zm8.230179 -1.640625l1.6875 0.203125q-0.40625 1.484375 -1.484375 2.3125q-1.078125 0.8125 -2.765625 0.8125q-2.125 0 -3.375 -1.296875q-1.234375 -1.3125 -1.234375 -3.671875q0 -2.453125 1.25 -3.796875q1.265625 -1.34375 3.265625 -1.34375q1.9375 0 3.15625 1.328125q1.234375 1.3125 1.234375 3.703125q0 0.15625 0 0.4375l-7.21875 0q0.09375 1.59375 0.90625 2.453125q0.8125 0.84375 2.015625 0.84375q0.90625 0 1.546875 -0.46875q0.640625 -0.484375 1.015625 -1.515625zm-5.390625 -2.65625l5.40625 0q-0.109375 -1.21875 -0.625 -1.828125q-0.78125 -0.953125 -2.03125 -0.953125q-1.125 0 -1.90625 0.765625q-0.765625 0.75 -0.84375 2.015625zm9.125717 5.765625l0 -9.671875l1.46875 0l0 1.46875q0.5625 -1.03125 1.03125 -1.359375q0.484375 -0.328125 1.0625 -0.328125q0.828125 0 1.6875 0.53125l-0.5625 1.515625q-0.609375 -0.359375 -1.203125 -0.359375q-0.546875 0 -0.96875 0.328125q-0.421875 0.328125 -0.609375 0.890625q-0.28125 0.875 -0.28125 1.921875l0 5.0625l-1.625 0zm12.540802 -1.1875q-0.921875 0.765625 -1.765625 1.09375q-0.828125 0.3125 -1.796875 0.3125q-1.59375 0 -2.453125 -0.78125q-0.859375 -0.78125 -0.859375 -1.984375q0 -0.71875 0.328125 -1.296875q0.328125 -0.59375 0.84375 -0.9375q0.53125 -0.359375 1.1875 -0.546875q0.46875 -0.125 1.453125 -0.25q1.984375 -0.234375 2.921875 -0.5625q0.015625 -0.34375 0.015625 -0.421875q0 -1.0 -0.46875 -1.421875q-0.625 -0.546875 -1.875 -0.546875q-1.15625 0 -1.703125 0.40625q-0.546875 0.40625 -0.8125 1.421875l-1.609375 -0.21875q0.21875 -1.015625 0.71875 -1.640625q0.5 -0.640625 1.453125 -0.984375q0.953125 -0.34375 2.1875 -0.34375q1.25 0 2.015625 0.296875q0.78125 0.28125 1.140625 0.734375q0.375 0.4375 0.515625 1.109375q0.078125 0.421875 0.078125 1.515625l0 2.1875q0 2.28125 0.109375 2.890625q0.109375 0.59375 0.40625 1.15625l-1.703125 0q-0.265625 -0.515625 -0.328125 -1.1875zm-0.140625 -3.671875q-0.890625 0.375 -2.671875 0.625q-1.015625 0.140625 -1.4375 0.328125q-0.421875 0.1875 -0.65625 0.53125q-0.21875 0.34375 -0.21875 0.78125q0 0.65625 0.5 1.09375q0.5 0.4375 1.453125 0.4375q0.9375 0 1.671875 -0.40625q0.75 -0.421875 1.09375 -1.140625q0.265625 -0.5625 0.265625 -1.640625l0 -0.609375zm7.781967 3.390625l0.234375 1.453125q-0.6875 0.140625 -1.234375 0.140625q-0.890625 0 -1.390625 -0.28125q-0.484375 -0.28125 -0.6875 -0.734375q-0.203125 -0.46875 -0.203125 -1.9375l0 -5.578125l-1.203125 0l0 -1.265625l1.203125 0l0 -2.390625l1.625 -0.984375l0 3.375l1.65625 0l0 1.265625l-1.65625 0l0 5.671875q0 0.6875 0.078125 0.890625q0.09375 0.203125 0.28125 0.328125q0.203125 0.109375 0.578125 0.109375q0.265625 0 0.71875 -0.0625zm0.99580383 -3.375q0 -2.6875 1.484375 -3.96875q1.25 -1.078125 3.046875 -1.078125q2.0 0 3.265625 1.3125q1.265625 1.296875 1.265625 3.609375q0 1.859375 -0.5625 2.9375q-0.5625 1.0625 -1.640625 1.65625q-1.0625 0.59375 -2.328125 0.59375q-2.03125 0 -3.28125 -1.296875q-1.25 -1.3125 -1.25 -3.765625zm1.6875 0q0 1.859375 0.796875 2.796875q0.8125 0.921875 2.046875 0.921875q1.21875 0 2.03125 -0.921875q0.8125 -0.9375 0.8125 -2.84375q0 -1.796875 -0.8125 -2.71875q-0.8125 -0.921875 -2.03125 -0.921875q-1.234375 0 -2.046875 0.921875q-0.796875 0.90625 -0.796875 2.765625zm9.281967 4.84375l0 -9.671875l1.46875 0l0 1.46875q0.5625 -1.03125 1.03125 -1.359375q0.484375 -0.328125 1.0625 -0.328125q0.828125 0 1.6875 0.53125l-0.5625 1.515625q-0.609375 -0.359375 -1.203125 -0.359375q-0.546875 0 -0.96875 0.328125q-0.421875 0.328125 -0.609375 0.890625q-0.28125 0.875 -0.28125 1.921875l0 5.0625l-1.625 0zm12.853302 -3.109375l1.6875 0.203125q-0.40625 1.484375 -1.484375 2.3125q-1.078125 0.8125 -2.765625 0.8125q-2.125 0 -3.375 -1.296875q-1.234375 -1.3125 -1.234375 -3.671875q0 -2.453125 1.25 -3.796875q1.265625 -1.34375 3.265625 -1.34375q1.9375 0 3.15625 1.328125q1.234375 1.3125 1.234375 3.703125q0 0.15625 0 0.4375l-7.21875 0q0.09375 1.59375 0.90625 2.453125q0.8125 0.84375 2.015625 0.84375q0.90625 0 1.546875 -0.46875q0.640625 -0.484375 1.015625 -1.515625zm-5.390625 -2.65625l5.40625 0q-0.109375 -1.21875 -0.625 -1.828125q-0.78125 -0.953125 -2.03125 -0.953125q-1.125 0 -1.90625 0.765625q-0.765625 0.75 -0.84375 2.015625zm9.141342 5.765625l0 -9.671875l1.46875 0l0 1.375q1.0625 -1.59375 3.0781403 -1.59375q0.875 0 1.609375 0.3125q0.734375 0.3125 1.09375 0.828125q0.375 0.5 0.515625 1.203125q0.09375 0.453125 0.09375 1.59375l0 5.953125l-1.640625 0l0 -5.890625q0 -1.0 -0.203125 -1.484375q-0.1875 -0.5 -0.671875 -0.796875q-0.484375 -0.296875 -1.140625 -0.296875q-1.0468903 0 -1.8125153 0.671875q-0.75 0.65625 -0.75 2.515625l0 5.28125l-1.640625 0z" fill-rule="nonzero"/><path fill="#000000" fill-opacity="0.0" d="m243.46457 139.64568l186.70865 0l0 42.015747l-186.70865 0z" fill-rule="evenodd"/><path stroke="#000000" stroke-width="2.0" stroke-linejoin="round" stroke-linecap="butt" d="m243.46457 139.64568l186.70865 0l0 42.015747l-186.70865 0z" fill-rule="evenodd"/><path fill="#000000" d="m298.62634 167.57355l0 -13.359375l1.765625 0l0 13.359375l-1.765625 0zm8.261444 -1.46875l0.234375 1.453125q-0.6875 0.140625 -1.234375 0.140625q-0.890625 0 -1.390625 -0.28125q-0.484375 -0.28125 -0.6875 -0.734375q-0.203125 -0.46875 -0.203125 -1.9375l0 -5.578125l-1.203125 0l0 -1.265625l1.203125 0l0 -2.390625l1.625 -0.984375l0 3.375l1.65625 0l0 1.265625l-1.65625 0l0 5.671875q0 0.6875 0.078125 0.890625q0.09375 0.203125 0.28125 0.328125q0.203125 0.109375 0.578125 0.109375q0.265625 0 0.71875 -0.0625zm8.230164 -1.640625l1.6875 0.203125q-0.40625 1.484375 -1.484375 2.3125q-1.078125 0.8125 -2.765625 0.8125q-2.125 0 -3.375 -1.296875q-1.234375 -1.3125 -1.234375 -3.671875q0 -2.453125 1.25 -3.796875q1.265625 -1.34375 3.265625 -1.34375q1.9375 0 3.15625 1.328125q1.234375 1.3125 1.234375 3.703125q0 0.15625 0 0.4375l-7.21875 0q0.09375 1.59375 0.90625 2.453125q0.8125 0.84375 2.015625 0.84375q0.90625 0 1.546875 -0.46875q0.640625 -0.484375 1.015625 -1.515625zm-5.390625 -2.65625l5.40625 0q-0.109375 -1.21875 -0.625 -1.828125q-0.78125 -0.953125 -2.03125 -0.953125q-1.125 0 -1.90625 0.765625q-0.765625 0.75 -0.84375 2.015625zm9.125732 5.765625l0 -9.671875l1.46875 0l0 1.46875q0.5625 -1.03125 1.03125 -1.359375q0.484375 -0.328125 1.0625 -0.328125q0.828125 0 1.6875 0.53125l-0.5625 1.515625q-0.609375 -0.359375 -1.203125 -0.359375q-0.546875 0 -0.96875 0.328125q-0.421875 0.328125 -0.609375 0.890625q-0.28125 0.875 -0.28125 1.921875l0 5.0625l-1.625 0zm12.540802 -1.1875q-0.921875 0.765625 -1.765625 1.09375q-0.828125 0.3125 -1.796875 0.3125q-1.59375 0 -2.453125 -0.78125q-0.859375 -0.78125 -0.859375 -1.984375q0 -0.71875 0.328125 -1.296875q0.328125 -0.59375 0.84375 -0.9375q0.53125 -0.359375 1.1875 -0.546875q0.46875 -0.125 1.453125 -0.25q1.984375 -0.234375 2.921875 -0.5625q0.015625 -0.34375 0.015625 -0.421875q0 -1.0 -0.46875 -1.421875q-0.625 -0.546875 -1.875 -0.546875q-1.15625 0 -1.703125 0.40625q-0.546875 0.40625 -0.8125 1.421875l-1.609375 -0.21875q0.21875 -1.015625 0.71875 -1.640625q0.5 -0.640625 1.453125 -0.984375q0.953125 -0.34375 2.1875 -0.34375q1.25 0 2.015625 0.296875q0.78125 0.28125 1.140625 0.734375q0.375 0.4375 0.515625 1.109375q0.078125 0.421875 0.078125 1.515625l0 2.1875q0 2.28125 0.109375 2.890625q0.109375 0.59375 0.40625 1.15625l-1.703125 0q-0.265625 -0.515625 -0.328125 -1.1875zm-0.140625 -3.671875q-0.890625 0.375 -2.671875 0.625q-1.015625 0.140625 -1.4375 0.328125q-0.421875 0.1875 -0.65625 0.53125q-0.21875 0.34375 -0.21875 0.78125q0 0.65625 0.5 1.09375q0.5 0.4375 1.453125 0.4375q0.9375 0 1.671875 -0.40625q0.75 -0.421875 1.09375 -1.140625q0.265625 -0.5625 0.265625 -1.640625l0 -0.609375zm7.781952 3.390625l0.234375 1.453125q-0.6875 0.140625 -1.234375 0.140625q-0.890625 0 -1.390625 -0.28125q-0.484375 -0.28125 -0.6875 -0.734375q-0.203125 -0.46875 -0.203125 -1.9375l0 -5.578125l-1.203125 0l0 -1.265625l1.203125 0l0 -2.390625l1.625 -0.984375l0 3.375l1.65625 0l0 1.265625l-1.65625 0l0 5.671875q0 0.6875 0.078125 0.890625q0.09375 0.203125 0.28125 0.328125q0.203125 0.109375 0.578125 0.109375q0.265625 0 0.71875 -0.0625zm0.9958191 -3.375q0 -2.6875 1.484375 -3.96875q1.25 -1.078125 3.046875 -1.078125q2.0 0 3.265625 1.3125q1.265625 1.296875 1.265625 3.609375q0 1.859375 -0.5625 2.9375q-0.5625 1.0625 -1.640625 1.65625q-1.0625 0.59375 -2.328125 0.59375q-2.03125 0 -3.28125 -1.296875q-1.25 -1.3125 -1.25 -3.765625zm1.6875 0q0 1.859375 0.796875 2.796875q0.8125 0.921875 2.046875 0.921875q1.21875 0 2.03125 -0.921875q0.8125 -0.9375 0.8125 -2.84375q0 -1.796875 -0.8125 -2.71875q-0.8125 -0.921875 -2.03125 -0.921875q-1.234375 0 -2.046875 0.921875q-0.796875 0.90625 -0.796875 2.765625zm9.281952 4.84375l0 -9.671875l1.46875 0l0 1.46875q0.5625 -1.03125 1.03125 -1.359375q0.484375 -0.328125 1.0625 -0.328125q0.828125 0 1.6875 0.53125l-0.5625 1.515625q-0.609375 -0.359375 -1.203125 -0.359375q-0.546875 0 -0.96875 0.328125q-0.421875 0.328125 -0.609375 0.890625q-0.28125 0.875 -0.28125 1.921875l0 5.0625l-1.625 0zm12.853302 -3.109375l1.6875 0.203125q-0.40625 1.484375 -1.484375 2.3125q-1.078125 0.8125 -2.765625 0.8125q-2.125 0 -3.375 -1.296875q-1.234375 -1.3125 -1.234375 -3.671875q0 -2.453125 1.25 -3.796875q1.265625 -1.34375 3.265625 -1.34375q1.9375 0 3.15625 1.328125q1.234375 1.3125 1.234375 3.703125q0 0.15625 0 0.4375l-7.21875 0q0.09375 1.59375 0.90625 2.453125q0.8125 0.84375 2.015625 0.84375q0.90625 0 1.546875 -0.46875q0.640625 -0.484375 1.015625 -1.515625zm-5.390625 -2.65625l5.40625 0q-0.109375 -1.21875 -0.625 -1.828125q-0.78125 -0.953125 -2.03125 -0.953125q-1.125 0 -1.90625 0.765625q-0.765625 0.75 -0.84375 2.015625zm9.141357 5.765625l0 -9.671875l1.46875 0l0 1.375q1.0625 -1.59375 3.078125 -1.59375q0.875 0 1.609375 0.3125q0.734375 0.3125 1.09375 0.828125q0.375 0.5 0.515625 1.203125q0.09375 0.453125 0.09375 1.59375l0 5.953125l-1.640625 0l0 -5.890625q0 -1.0 -0.203125 -1.484375q-0.1875 -0.5 -0.671875 -0.796875q-0.484375 -0.296875 -1.140625 -0.296875q-1.046875 0 -1.8125 0.671875q-0.75 0.65625 -0.75 2.515625l0 5.28125l-1.640625 0z" fill-rule="nonzero"/><path fill="#000000" fill-opacity="0.0" d="m472.76117 139.64568l186.70862 0l0 42.015747l-186.70862 0z" fill-rule="evenodd"/><path stroke="#000000" stroke-width="2.0" stroke-linejoin="round" stroke-linecap="butt" d="m472.76117 139.64568l186.70862 0l0 42.015747l-186.70862 0z" fill-rule="evenodd"/><path fill="#000000" d="m540.0502 167.57355l0 -1.640625l6.84375 -8.546875q0.71875 -0.921875 1.375 -1.59375l-7.453125 0l0 -1.578125l9.578125 0l0 1.578125l-7.5 9.265625l-0.8125 0.9375l8.53125 0l0 1.578125l-10.5625 0zm18.880371 -3.109375l1.6875 0.203125q-0.40625 1.484375 -1.484375 2.3125q-1.078125 0.8125 -2.765625 0.8125q-2.125 0 -3.375 -1.296875q-1.234375 -1.3125 -1.234375 -3.671875q0 -2.453125 1.25 -3.796875q1.265625 -1.34375 3.265625 -1.34375q1.9375 0 3.15625 1.328125q1.234375 1.3125 1.234375 3.703125q0 0.15625 0 0.4375l-7.21875 0q0.09375 1.59375 0.90625 2.453125q0.8125 0.84375 2.015625 0.84375q0.90625 0 1.546875 -0.46875q0.640625 -0.484375 1.015625 -1.515625zm-5.390625 -2.65625l5.40625 0q-0.109375 -1.21875 -0.625 -1.828125q-0.78125 -0.953125 -2.03125 -0.953125q-1.125 0 -1.90625 0.765625q-0.765625 0.75 -0.84375 2.015625zm9.141357 -5.703125l0 -1.890625l1.640625 0l0 1.890625l-1.640625 0zm0 11.46875l0 -9.671875l1.640625 0l0 9.671875l-1.640625 0zm3.8322754 0.796875l1.59375 0.234375q0.109375 0.75 0.5625 1.078125q0.609375 0.453125 1.671875 0.453125q1.140625 0 1.75 -0.453125q0.625 -0.453125 0.84375 -1.265625q0.125 -0.5 0.109375 -2.109375q-1.0625 1.265625 -2.671875 1.265625q-2.0 0 -3.09375 -1.4375q-1.09375 -1.4375 -1.09375 -3.453125q0 -1.390625 0.5 -2.5625q0.515625 -1.171875 1.453125 -1.796875q0.953125 -0.640625 2.25 -0.640625q1.703125 0 2.8125 1.375l0 -1.15625l1.515625 0l0 8.359375q0 2.265625 -0.46875 3.203125q-0.453125 0.9375 -1.453125 1.484375q-0.984375 0.546875 -2.453125 0.546875q-1.71875 0 -2.796875 -0.78125q-1.0625 -0.765625 -1.03125 -2.34375zm1.359375 -5.8125q0 1.90625 0.75 2.78125q0.765625 0.875 1.90625 0.875q1.125 0 1.890625 -0.859375q0.765625 -0.875 0.765625 -2.734375q0 -1.78125 -0.796875 -2.671875q-0.78125 -0.90625 -1.890625 -0.90625q-1.09375 0 -1.859375 0.890625q-0.765625 0.875 -0.765625 2.625zm15.953857 1.90625l1.6875 0.203125q-0.40625 1.484375 -1.484375 2.3125q-1.078125 0.8125 -2.765625 0.8125q-2.125 0 -3.375 -1.296875q-1.234375 -1.3125 -1.234375 -3.671875q0 -2.453125 1.25 -3.796875q1.265625 -1.34375 3.265625 -1.34375q1.9375 0 3.15625 1.328125q1.234375 1.3125 1.234375 3.703125q0 0.15625 0 0.4375l-7.21875 0q0.09375 1.59375 0.90625 2.453125q0.8125 0.84375 2.015625 0.84375q0.90625 0 1.546875 -0.46875q0.640625 -0.484375 1.015625 -1.515625zm-5.390625 -2.65625l5.40625 0q-0.109375 -1.21875 -0.625 -1.828125q-0.78125 -0.953125 -2.03125 -0.953125q-1.125 0 -1.90625 0.765625q-0.765625 0.75 -0.84375 2.015625zm9.125732 5.765625l0 -9.671875l1.46875 0l0 1.46875q0.5625 -1.03125 1.03125 -1.359375q0.484375 -0.328125 1.0625 -0.328125q0.828125 0 1.6875 0.53125l-0.5625 1.515625q-0.609375 -0.359375 -1.203125 -0.359375q-0.546875 0 -0.96875 0.328125q-0.421875 0.328125 -0.609375 0.890625q-0.28125 0.875 -0.28125 1.921875l0 5.0625l-1.625 0z" fill-rule="nonzero"/><path fill="#000000" fill-opacity="0.0" d="m702.05774 139.64568l186.70868 0l0 42.015747l-186.70868 0z" fill-rule="evenodd"/><path stroke="#000000" stroke-width="2.0" stroke-linejoin="round" stroke-linecap="butt" d="m702.05774 139.64568l186.70868 0l0 42.015747l-186.70868 0z" fill-rule="evenodd"/><path fill="#000000" d="m748.96674 171.27667l0 -17.0625l3.609375 0l0 1.359375l-1.96875 0l0 14.34375l1.96875 0l0 1.359375l-3.609375 0zm4.6989136 -10.296875q0 -2.359375 0.484375 -3.796875q0.484375 -1.453125 1.4375 -2.234375q0.96875 -0.78125 2.421875 -0.78125q1.078125 0 1.890625 0.4375q0.8125 0.421875 1.328125 1.25q0.53125 0.8125 0.828125 1.984375q0.3125 1.15625 0.3125 3.140625q0 2.359375 -0.484375 3.8125q-0.484375 1.4375 -1.453125 2.234375q-0.953125 0.78125 -2.421875 0.78125q-1.921875 0 -3.03125 -1.390625q-1.3125 -1.671875 -1.3125 -5.4375zm1.671875 0q0 3.296875 0.765625 4.390625q0.78125 1.078125 1.90625 1.078125q1.140625 0 1.90625 -1.09375q0.765625 -1.09375 0.765625 -4.375q0 -3.296875 -0.765625 -4.375q-0.765625 -1.078125 -1.921875 -1.078125q-1.125 0 -1.796875 0.953125q-0.859375 1.21875 -0.859375 4.5zm11.891357 10.296875l-3.609375 0l0 -1.359375l1.96875 0l0 -14.34375l-1.96875 0l0 -1.359375l3.609375 0l0 17.0625zm2.9020386 -11.515625l0 -1.859375l1.859375 0l0 1.859375l-1.859375 0zm0 7.8125l0 -1.875l1.859375 0l0 1.875l-1.859375 0zm9.522827 -4.296875l1.65625 -0.140625q0.125 1.0 0.546875 1.640625q0.4375 0.640625 1.34375 1.046875q0.921875 0.390625 2.0625 0.390625q1.0 0 1.78125 -0.296875q0.78125 -0.296875 1.15625 -0.8125q0.375 -0.53125 0.375 -1.15625q0 -0.625 -0.375 -1.09375q-0.359375 -0.46875 -1.1875 -0.796875q-0.546875 -0.203125 -2.390625 -0.640625q-1.828125 -0.453125 -2.5625 -0.84375q-0.96875 -0.5 -1.4375 -1.234375q-0.46875 -0.75 -0.46875 -1.671875q0 -1.0 0.578125 -1.875q0.578125 -0.890625 1.671875 -1.34375q1.109375 -0.453125 2.453125 -0.453125q1.484375 0 2.609375 0.484375q1.140625 0.46875 1.75 1.40625q0.609375 0.921875 0.65625 2.09375l-1.6875 0.125q-0.140625 -1.265625 -0.9375 -1.90625q-0.78125 -0.65625 -2.3125 -0.65625q-1.609375 0 -2.34375 0.59375q-0.734375 0.59375 -0.734375 1.421875q0 0.71875 0.53125 1.171875q0.5 0.46875 2.65625 0.96875q2.15625 0.484375 2.953125 0.84375q1.171875 0.53125 1.71875 1.359375q0.5625 0.828125 0.5625 1.90625q0 1.0625 -0.609375 2.015625q-0.609375 0.9375 -1.75 1.46875q-1.140625 0.515625 -2.578125 0.515625q-1.8125 0 -3.046875 -0.53125q-1.21875 -0.53125 -1.921875 -1.59375q-0.6875 -1.0625 -0.71875 -2.40625zm16.412354 2.828125l0.234375 1.453125q-0.6875 0.140625 -1.234375 0.140625q-0.890625 0 -1.390625 -0.28125q-0.484375 -0.28125 -0.6875 -0.734375q-0.203125 -0.46875 -0.203125 -1.9375l0 -5.578125l-1.203125 0l0 -1.265625l1.203125 0l0 -2.390625l1.625 -0.984375l0 3.375l1.65625 0l0 1.265625l-1.65625 0l0 5.671875q0 0.6875 0.078125 0.890625q0.09375 0.203125 0.28125 0.328125q0.203125 0.109375 0.578125 0.109375q0.265625 0 0.71875 -0.0625zm7.9332886 1.46875l0 -1.421875q-1.125 1.640625 -3.0625 1.640625q-0.859375 0 -1.609375 -0.328125q-0.734375 -0.328125 -1.09375 -0.828125q-0.359375 -0.5 -0.5 -1.21875q-0.109375 -0.46875 -0.109375 -1.53125l0 -5.984375l1.640625 0l0 5.359375q0 1.28125 0.109375 1.734375q0.15625 0.640625 0.65625 1.015625q0.5 0.375 1.234375 0.375q0.734375 0 1.375 -0.375q0.65625 -0.390625 0.921875 -1.03125q0.265625 -0.65625 0.265625 -1.890625l0 -5.1875l1.640625 0l0 9.671875l-1.46875 0zm10.313232 0l0 -1.21875q-0.90625 1.4375 -2.703125 1.4375q-1.15625 0 -2.125 -0.640625q-0.96875 -0.640625 -1.5 -1.78125q-0.53125 -1.140625 -0.53125 -2.625q0 -1.453125 0.484375 -2.625q0.484375 -1.1875 1.4375 -1.8125q0.96875 -0.625 2.171875 -0.625q0.875 0 1.546875 0.375q0.6875 0.359375 1.109375 0.953125l0 -4.796875l1.640625 0l0 13.359375l-1.53125 0zm-5.171875 -4.828125q0 1.859375 0.78125 2.78125q0.78125 0.921875 1.84375 0.921875q1.078125 0 1.828125 -0.875q0.75 -0.890625 0.75 -2.6875q0 -1.984375 -0.765625 -2.90625q-0.765625 -0.9375 -1.890625 -0.9375q-1.078125 0 -1.8125 0.890625q-0.734375 0.890625 -0.734375 2.8125zm15.906982 1.71875l1.6875 0.203125q-0.40625 1.484375 -1.484375 2.3125q-1.078125 0.8125 -2.765625 0.8125q-2.125 0 -3.375 -1.296875q-1.234375 -1.3125 -1.234375 -3.671875q0 -2.453125 1.25 -3.796875q1.265625 -1.34375 3.265625 -1.34375q1.9375 0 3.15625 1.328125q1.234375 1.3125 1.234375 3.703125q0 0.15625 0 0.4375l-7.21875 0q0.09375 1.59375 0.90625 2.453125q0.8125 0.84375 2.015625 0.84375q0.90625 0 1.546875 -0.46875q0.640625 -0.484375 1.015625 -1.515625zm-5.390625 -2.65625l5.40625 0q-0.109375 -1.21875 -0.625 -1.828125q-0.78125 -0.953125 -2.03125 -0.953125q-1.125 0 -1.90625 0.765625q-0.765625 0.75 -0.84375 2.015625zm9.141296 5.765625l0 -9.671875l1.46875 0l0 1.375q1.0625 -1.59375 3.078125 -1.59375q0.875 0 1.609375 0.3125q0.734375 0.3125 1.09375 0.828125q0.375 0.5 0.515625 1.203125q0.09375 0.453125 0.09375 1.59375l0 5.953125l-1.640625 0l0 -5.890625q0 -1.0 -0.203125 -1.484375q-0.1875 -0.5 -0.671875 -0.796875q-0.484375 -0.296875 -1.140625 -0.296875q-1.046875 0 -1.8125 0.671875q-0.75 0.65625 -0.75 2.515625l0 5.28125l-1.640625 0zm13.953857 -1.46875l0.234375 1.453125q-0.6875 0.140625 -1.234375 0.140625q-0.890625 0 -1.390625 -0.28125q-0.484375 -0.28125 -0.6875 -0.734375q-0.203125 -0.46875 -0.203125 -1.9375l0 -5.578125l-1.203125 0l0 -1.265625l1.203125 0l0 -2.390625l1.625 -0.984375l0 3.375l1.65625 0l0 1.265625l-1.65625 0l0 5.671875q0 0.6875 0.078125 0.890625q0.09375 0.203125 0.28125 0.328125q0.203125 0.109375 0.578125 0.109375q0.265625 0 0.71875 -0.0625z" fill-rule="nonzero"/><path fill="#000000" fill-opacity="0.0" d="m702.05774 181.66142l186.70868 0l0 42.015747l-186.70868 0z" fill-rule="evenodd"/><path stroke="#000000" stroke-width="2.0" stroke-linejoin="round" stroke-linecap="butt" d="m702.05774 181.66142l186.70868 0l0 42.015747l-186.70868 0z" fill-rule="evenodd"/><path fill="#000000" d="m748.96674 213.29242l0 -17.0625l3.609375 0l0 1.359375l-1.96875 0l0 14.34375l1.96875 0l0 1.359375l-3.609375 0zm10.870789 -3.703125l-1.640625 0l0 -10.453125q-0.59375 0.5625 -1.5625 1.140625q-0.953125 0.5625 -1.71875 0.84375l0 -1.59375q1.375 -0.640625 2.40625 -1.5625q1.03125 -0.921875 1.453125 -1.78125l1.0625 0l0 13.40625zm7.3913574 3.703125l-3.609375 0l0 -1.359375l1.96875 0l0 -14.34375l-1.96875 0l0 -1.359375l3.609375 0l0 17.0625zm2.9020386 -11.515625l0 -1.859375l1.859375 0l0 1.859375l-1.859375 0zm0 7.8125l0 -1.875l1.859375 0l0 1.875l-1.859375 0zm9.522827 -4.296875l1.65625 -0.140625q0.125 1.0 0.546875 1.640625q0.4375 0.640625 1.34375 1.046875q0.921875 0.390625 2.0625 0.390625q1.0 0 1.78125 -0.296875q0.78125 -0.296875 1.15625 -0.8125q0.375 -0.53125 0.375 -1.15625q0 -0.625 -0.375 -1.09375q-0.359375 -0.46875 -1.1875 -0.796875q-0.546875 -0.203125 -2.390625 -0.640625q-1.828125 -0.453125 -2.5625 -0.84375q-0.96875 -0.5 -1.4375 -1.234375q-0.46875 -0.75 -0.46875 -1.671875q0 -1.0 0.578125 -1.875q0.578125 -0.890625 1.671875 -1.34375q1.109375 -0.453125 2.453125 -0.453125q1.484375 0 2.609375 0.484375q1.140625 0.46875 1.75 1.40625q0.609375 0.921875 0.65625 2.09375l-1.6875 0.125q-0.140625 -1.265625 -0.9375 -1.90625q-0.78125 -0.65625 -2.3125 -0.65625q-1.609375 0 -2.34375 0.59375q-0.734375 0.59375 -0.734375 1.421875q0 0.71875 0.53125 1.171875q0.5 0.46875 2.65625 0.96875q2.15625 0.484375 2.953125 0.84375q1.171875 0.53125 1.71875 1.359375q0.5625 0.828125 0.5625 1.90625q0 1.0625 -0.609375 2.015625q-0.609375 0.9375 -1.75 1.46875q-1.140625 0.515625 -2.578125 0.515625q-1.8125 0 -3.046875 -0.53125q-1.21875 -0.53125 -1.921875 -1.59375q-0.6875 -1.0625 -0.71875 -2.40625zm16.412354 2.828125l0.234375 1.453125q-0.6875 0.140625 -1.234375 0.140625q-0.890625 0 -1.390625 -0.28125q-0.484375 -0.28125 -0.6875 -0.734375q-0.203125 -0.46875 -0.203125 -1.9375l0 -5.578125l-1.203125 0l0 -1.265625l1.203125 0l0 -2.390625l1.625 -0.984375l0 3.375l1.65625 0l0 1.265625l-1.65625 0l0 5.671875q0 0.6875 0.078125 0.890625q0.09375 0.203125 0.28125 0.328125q0.203125 0.109375 0.578125 0.109375q0.265625 0 0.71875 -0.0625zm7.9332886 1.46875l0 -1.421875q-1.125 1.640625 -3.0625 1.640625q-0.859375 0 -1.609375 -0.328125q-0.734375 -0.328125 -1.09375 -0.828125q-0.359375 -0.5 -0.5 -1.21875q-0.109375 -0.46875 -0.109375 -1.53125l0 -5.984375l1.640625 0l0 5.359375q0 1.28125 0.109375 1.734375q0.15625 0.640625 0.65625 1.015625q0.5 0.375 1.234375 0.375q0.734375 0 1.375 -0.375q0.65625 -0.390625 0.921875 -1.03125q0.265625 -0.65625 0.265625 -1.890625l0 -5.1875l1.640625 0l0 9.671875l-1.46875 0zm10.313232 0l0 -1.21875q-0.90625 1.4375 -2.703125 1.4375q-1.15625 0 -2.125 -0.640625q-0.96875 -0.640625 -1.5 -1.78125q-0.53125 -1.140625 -0.53125 -2.625q0 -1.453125 0.484375 -2.625q0.484375 -1.1875 1.4375 -1.8125q0.96875 -0.625 2.171875 -0.625q0.875 0 1.546875 0.375q0.6875 0.359375 1.109375 0.953125l0 -4.796875l1.640625 0l0 13.359375l-1.53125 0zm-5.171875 -4.828125q0 1.859375 0.78125 2.78125q0.78125 0.921875 1.84375 0.921875q1.078125 0 1.828125 -0.875q0.75 -0.890625 0.75 -2.6875q0 -1.984375 -0.765625 -2.90625q-0.765625 -0.9375 -1.890625 -0.9375q-1.078125 0 -1.8125 0.890625q-0.734375 0.890625 -0.734375 2.8125zm15.906982 1.71875l1.6875 0.203125q-0.40625 1.484375 -1.484375 2.3125q-1.078125 0.8125 -2.765625 0.8125q-2.125 0 -3.375 -1.296875q-1.234375 -1.3125 -1.234375 -3.671875q0 -2.453125 1.25 -3.796875q1.265625 -1.34375 3.265625 -1.34375q1.9375 0 3.15625 1.328125q1.234375 1.3125 1.234375 3.703125q0 0.15625 0 0.4375l-7.21875 0q0.09375 1.59375 0.90625 2.453125q0.8125 0.84375 2.015625 0.84375q0.90625 0 1.546875 -0.46875q0.640625 -0.484375 1.015625 -1.515625zm-5.390625 -2.65625l5.40625 0q-0.109375 -1.21875 -0.625 -1.828125q-0.78125 -0.953125 -2.03125 -0.953125q-1.125 0 -1.90625 0.765625q-0.765625 0.75 -0.84375 2.015625zm9.141296 5.765625l0 -9.671875l1.46875 0l0 1.375q1.0625 -1.59375 3.078125 -1.59375q0.875 0 1.609375 0.3125q0.734375 0.3125 1.09375 0.828125q0.375 0.5 0.515625 1.203125q0.09375 0.453125 0.09375 1.59375l0 5.953125l-1.640625 0l0 -5.890625q0 -1.0 -0.203125 -1.484375q-0.1875 -0.5 -0.671875 -0.796875q-0.484375 -0.296875 -1.140625 -0.296875q-1.046875 0 -1.8125 0.671875q-0.75 0.65625 -0.75 2.515625l0 5.28125l-1.640625 0zm13.953857 -1.46875l0.234375 1.453125q-0.6875 0.140625 -1.234375 0.140625q-0.890625 0 -1.390625 -0.28125q-0.484375 -0.28125 -0.6875 -0.734375q-0.203125 -0.46875 -0.203125 -1.9375l0 -5.578125l-1.203125 0l0 -1.265625l1.203125 0l0 -2.390625l1.625 -0.984375l0 3.375l1.65625 0l0 1.265625l-1.65625 0l0 5.671875q0 0.6875 0.078125 0.890625q0.09375 0.203125 0.28125 0.328125q0.203125 0.109375 0.578125 0.109375q0.265625 0 0.71875 -0.0625z" fill-rule="nonzero"/><path fill="#000000" fill-opacity="0.0" d="m702.05774 223.67717l186.70868 0l0 42.01573l-186.70868 0z" fill-rule="evenodd"/><path stroke="#000000" stroke-width="2.0" stroke-linejoin="round" stroke-linecap="butt" d="m702.05774 223.67717l186.70868 0l0 42.01573l-186.70868 0z" fill-rule="evenodd"/><path fill="#000000" d="m748.96674 255.30817l0 -17.0625l3.609375 0l0 1.359375l-1.96875 0l0 14.34375l1.96875 0l0 1.359375l-3.609375 0zm13.308289 -5.28125l0 1.578125l-8.828125 0q-0.015625 -0.59375 0.1875 -1.140625q0.34375 -0.90625 1.078125 -1.78125q0.75 -0.875 2.15625 -2.015625q2.171875 -1.78125 2.9375 -2.828125q0.765625 -1.046875 0.765625 -1.96875q0 -0.984375 -0.703125 -1.640625q-0.6875 -0.671875 -1.8125 -0.671875q-1.1875 0 -1.90625 0.71875q-0.703125 0.703125 -0.703125 1.953125l-1.6875 -0.171875q0.171875 -1.890625 1.296875 -2.875q1.140625 -0.984375 3.03125 -0.984375q1.921875 0 3.046875 1.0625q1.125 1.0625 1.125 2.640625q0 0.796875 -0.328125 1.578125q-0.328125 0.78125 -1.09375 1.640625q-0.75 0.84375 -2.53125 2.34375q-1.46875 1.234375 -1.890625 1.6875q-0.421875 0.4375 -0.6875 0.875l6.546875 0zm4.9538574 5.28125l-3.609375 0l0 -1.359375l1.96875 0l0 -14.34375l-1.96875 0l0 -1.359375l3.609375 0l0 17.0625zm2.9020386 -11.515625l0 -1.859375l1.859375 0l0 1.859375l-1.859375 0zm0 7.8125l0 -1.875l1.859375 0l0 1.875l-1.859375 0zm9.522827 -4.296875l1.65625 -0.140625q0.125 1.0 0.546875 1.640625q0.4375 0.640625 1.34375 1.046875q0.921875 0.390625 2.0625 0.390625q1.0 0 1.78125 -0.296875q0.78125 -0.296875 1.15625 -0.8125q0.375 -0.53125 0.375 -1.15625q0 -0.625 -0.375 -1.09375q-0.359375 -0.46875 -1.1875 -0.796875q-0.546875 -0.203125 -2.390625 -0.640625q-1.828125 -0.453125 -2.5625 -0.84375q-0.96875 -0.5 -1.4375 -1.234375q-0.46875 -0.75 -0.46875 -1.671875q0 -1.0 0.578125 -1.875q0.578125 -0.890625 1.671875 -1.34375q1.109375 -0.453125 2.453125 -0.453125q1.484375 0 2.609375 0.484375q1.140625 0.46875 1.75 1.40625q0.609375 0.921875 0.65625 2.09375l-1.6875 0.125q-0.140625 -1.265625 -0.9375 -1.90625q-0.78125 -0.65625 -2.3125 -0.65625q-1.609375 0 -2.34375 0.59375q-0.734375 0.59375 -0.734375 1.421875q0 0.71875 0.53125 1.171875q0.5 0.46875 2.65625 0.96875q2.15625 0.484375 2.953125 0.84375q1.171875 0.53125 1.71875 1.359375q0.5625 0.828125 0.5625 1.90625q0 1.0625 -0.609375 2.015625q-0.609375 0.9375 -1.75 1.46875q-1.140625 0.515625 -2.578125 0.515625q-1.8125 0 -3.046875 -0.53125q-1.21875 -0.53125 -1.921875 -1.59375q-0.6875 -1.0625 -0.71875 -2.40625zm16.412354 2.828125l0.234375 1.453125q-0.6875 0.140625 -1.234375 0.140625q-0.890625 0 -1.390625 -0.28125q-0.484375 -0.28125 -0.6875 -0.734375q-0.203125 -0.46875 -0.203125 -1.9375l0 -5.578125l-1.203125 0l0 -1.265625l1.203125 0l0 -2.390625l1.625 -0.984375l0 3.375l1.65625 0l0 1.265625l-1.65625 0l0 5.671875q0 0.6875 0.078125 0.890625q0.09375 0.203125 0.28125 0.328125q0.203125 0.109375 0.578125 0.109375q0.265625 0 0.71875 -0.0625zm7.9332886 1.46875l0 -1.421875q-1.125 1.640625 -3.0625 1.640625q-0.859375 0 -1.609375 -0.328125q-0.734375 -0.328125 -1.09375 -0.828125q-0.359375 -0.5 -0.5 -1.21875q-0.109375 -0.46875 -0.109375 -1.53125l0 -5.984375l1.640625 0l0 5.359375q0 1.28125 0.109375 1.734375q0.15625 0.640625 0.65625 1.015625q0.5 0.375 1.234375 0.375q0.734375 0 1.375 -0.375q0.65625 -0.390625 0.921875 -1.03125q0.265625 -0.65625 0.265625 -1.890625l0 -5.1875l1.640625 0l0 9.671875l-1.46875 0zm10.313232 0l0 -1.21875q-0.90625 1.4375 -2.703125 1.4375q-1.15625 0 -2.125 -0.640625q-0.96875 -0.640625 -1.5 -1.78125q-0.53125 -1.140625 -0.53125 -2.625q0 -1.453125 0.484375 -2.625q0.484375 -1.1875 1.4375 -1.8125q0.96875 -0.625 2.171875 -0.625q0.875 0 1.546875 0.375q0.6875 0.359375 1.109375 0.953125l0 -4.796875l1.640625 0l0 13.359375l-1.53125 0zm-5.171875 -4.828125q0 1.859375 0.78125 2.78125q0.78125 0.921875 1.84375 0.921875q1.078125 0 1.828125 -0.875q0.75 -0.890625 0.75 -2.6875q0 -1.984375 -0.765625 -2.90625q-0.765625 -0.9375 -1.890625 -0.9375q-1.078125 0 -1.8125 0.890625q-0.734375 0.890625 -0.734375 2.8125zm15.906982 1.71875l1.6875 0.203125q-0.40625 1.484375 -1.484375 2.3125q-1.078125 0.8125 -2.765625 0.8125q-2.125 0 -3.375 -1.296875q-1.234375 -1.3125 -1.234375 -3.671875q0 -2.453125 1.25 -3.796875q1.265625 -1.34375 3.265625 -1.34375q1.9375 0 3.15625 1.328125q1.234375 1.3125 1.234375 3.703125q0 0.15625 0 0.4375l-7.21875 0q0.09375 1.59375 0.90625 2.453125q0.8125 0.84375 2.015625 0.84375q0.90625 0 1.546875 -0.46875q0.640625 -0.484375 1.015625 -1.515625zm-5.390625 -2.65625l5.40625 0q-0.109375 -1.21875 -0.625 -1.828125q-0.78125 -0.953125 -2.03125 -0.953125q-1.125 0 -1.90625 0.765625q-0.765625 0.75 -0.84375 2.015625zm9.141296 5.765625l0 -9.671875l1.46875 0l0 1.375q1.0625 -1.59375 3.078125 -1.59375q0.875 0 1.609375 0.3125q0.734375 0.3125 1.09375 0.828125q0.375 0.5 0.515625 1.203125q0.09375 0.453125 0.09375 1.59375l0 5.953125l-1.640625 0l0 -5.890625q0 -1.0 -0.203125 -1.484375q-0.1875 -0.5 -0.671875 -0.796875q-0.484375 -0.296875 -1.140625 -0.296875q-1.046875 0 -1.8125 0.671875q-0.75 0.65625 -0.75 2.515625l0 5.28125l-1.640625 0zm13.953857 -1.46875l0.234375 1.453125q-0.6875 0.140625 -1.234375 0.140625q-0.890625 0 -1.390625 -0.28125q-0.484375 -0.28125 -0.6875 -0.734375q-0.203125 -0.46875 -0.203125 -1.9375l0 -5.578125l-1.203125 0l0 -1.265625l1.203125 0l0 -2.390625l1.625 -0.984375l0 3.375l1.65625 0l0 1.265625l-1.65625 0l0 5.671875q0 0.6875 0.078125 0.890625q0.09375 0.203125 0.28125 0.328125q0.203125 0.109375 0.578125 0.109375q0.265625 0 0.71875 -0.0625z" fill-rule="nonzero"/><path fill="#000000" fill-opacity="0.0" d="m702.05774 265.6929l186.70868 0l0 42.015747l-186.70868 0z" fill-rule="evenodd"/><path stroke="#000000" stroke-width="2.0" stroke-linejoin="round" stroke-linecap="butt" d="m702.05774 265.6929l186.70868 0l0 42.015747l-186.70868 0z" fill-rule="evenodd"/><path fill="#000000" d="m789.32465 293.6208l0 -1.875l1.875 0l0 1.875l-1.875 0zm5.1832886 0l0 -1.875l1.875 0l0 1.875l-1.875 0zm5.1832886 0l0 -1.875l1.875 0l0 1.875l-1.875 0z" fill-rule="nonzero"/><path fill="#000000" fill-opacity="0.0" d="m107.52231 57.09974l0 40.53543" fill-rule="evenodd"/><path stroke="#000000" stroke-width="2.0" stroke-linejoin="round" stroke-linecap="butt" d="m107.52231 57.09974l0 28.53543" fill-rule="evenodd"/><path fill="#000000" stroke="#000000" stroke-width="2.0" stroke-linecap="butt" d="m104.21884 85.63517l3.3034668 9.076195l3.3034668 -9.076195z" fill-rule="evenodd"/><path fill="#000000" fill-opacity="0.0" d="m200.87665 118.637794l42.582672 0" fill-rule="evenodd"/><path stroke="#000000" stroke-width="2.0" stroke-linejoin="round" stroke-linecap="butt" d="m200.87665 118.637794l30.582672 0" fill-rule="evenodd"/><path fill="#000000" stroke="#000000" stroke-width="2.0" stroke-linecap="butt" d="m231.45932 121.94126l9.076187 -3.3034668l-9.076187 -3.3034668z" fill-rule="evenodd"/><path fill="#000000" fill-opacity="0.0" d="m430.17322 118.637794l42.582703 0" fill-rule="evenodd"/><path stroke="#000000" stroke-width="2.0" stroke-linejoin="round" stroke-linecap="butt" d="m430.17322 118.637794l30.582703 0" fill-rule="evenodd"/><path fill="#000000" stroke="#000000" stroke-width="2.0" stroke-linecap="butt" d="m460.75592 121.94126l9.076172 -3.3034668l-9.076172 -3.3034668z" fill-rule="evenodd"/><path fill="#000000" fill-opacity="0.0" d="m659.4698 118.637794l42.582703 0" fill-rule="evenodd"/><path stroke="#000000" stroke-width="2.0" stroke-linejoin="round" stroke-linecap="butt" d="m659.4698 118.637794l30.582703 0" fill-rule="evenodd"/><path fill="#000000" stroke="#000000" stroke-width="2.0" stroke-linecap="butt" d="m690.0525 121.94126l9.076172 -3.3034668l-9.076172 -3.3034668z" fill-rule="evenodd"/></g></svg>